<svg height="213" viewBox="0 0 230 213" width="230" xmlns="http://www.w3.org/2000/svg" xmlns:xlink="http://www.w3.org/1999/xlink"><linearGradient id="a"><stop offset="0" stop-color="#fcc642"/><stop offset="1" stop-color="#f7941f"/></linearGradient><linearGradient id="b" x1="100%" x2="0%" xlink:href="#a" y1="49.750784%" y2="50.249216%"/><linearGradient id="c" x1="67.44036%" x2="50%" xlink:href="#a" y1="11.364095%" y2="100%"/><linearGradient id="d" x1="47.359591%" x2="50%" xlink:href="#a" y1="0%" y2="100%"/><linearGradient id="e" x1="86.507372%" x2="50%" xlink:href="#a" y1="18.244063%" y2="92.124607%"/><linearGradient id="f" x1="33.21496%" x2="90.65707%" xlink:href="#a" y1="79.398753%" y2="17.586393%"/><linearGradient id="g" x1="100%" x2="0%" xlink:href="#a" y1="46.73134%" y2="53.26866%"/><linearGradient id="h" x1="100%" x2="0%" xlink:href="#a" y1="46.622937%" y2="53.377063%"/><linearGradient id="i" x1="100%" x2="0%" xlink:href="#a" y1="46.347699%" y2="53.652301%"/><linearGradient id="j" x1="100%" x2="0%" xlink:href="#a" y1="0%" y2="100%"/><linearGradient id="k" x1="69.007629%" x2="50%" xlink:href="#a" y1="11.364095%" y2="100%"/><linearGradient id="l" x1="53.90394%" x2="46.089311%" xlink:href="#a" y1="5.219208%" y2="100%"/><g fill="none" fill-rule="evenodd"><ellipse cx="133.501059" cy="205.508753" fill="url(#b)" fill-opacity=".25" rx="96.498941" ry="6.812796"/><path d="m195.872924 117.318444-52.503157-65.6092908c-2.383994 2.1802045-5.321278 3.6633478-8.491017 4.2874289-9.884261 1.946623-19.537143-4.8031985-21.56032-15.0761485-1.430156-7.2618167 1.338426-14.3362869 6.573684-18.5495354l-17.902075-22.3708982-101.990039 87.1661848 93.8828688 117.3184432z" fill="url(#c)" fill-rule="nonzero" opacity=".25"/><path d="m84.9732357 64.1956406-43.7451116 8.9392062c-2.5034518.5115753-4.6415212 2.1273279-5.8171058 4.3960238-1.1755847 2.2686958-1.2627001 4.9472043-.2370175 7.2874939l49.8701125 113.7881965c2.2645907 5.167094 8.0416095 7.817322 13.4353192 6.163502l50.4039245-15.517228c2.706928-.833349 4.900439-2.831733 5.981647-5.44954 1.081208-2.617808.937193-5.581638-.392726-8.082287l-56.2288517-105.727239c-3.5029407-6.8615435-6.4047716-6.8615435-13.2701906-5.7981284z" fill="#6b6c71" fill-rule="nonzero"/><path d="m41.1723845 74.2441226 46.5447621-9.1778529c3.0431543-.6000607 6.1232272.8469016 7.6041461 3.5722897l58.2309253 107.1644446c1.014016 1.866132 1.13514 4.089321.329868 6.054573-.805272 1.965251-2.451574 3.464227-4.483493 4.082271l-49.6277133 15.095083c-4.2787523 1.301449-8.8581786-.778732-10.6930924-4.857284l-51.6204424-114.7392606c-.6469613-1.4380325-.6023513-3.0926883.1211534-4.4937726s2.0468126-2.3954345 3.5938862-2.7004912z" fill="url(#d)" fill-rule="nonzero"/><path d="m102.709303 161.470659 65.82875-17.895723-41.369309-75.1570213-60.2251184 13.0805687-.2861374.2152844-.80391.6022512z" fill="#6b6c71" fill-rule="nonzero"/><g transform="matrix(.99939083 -.0348995 .0348995 .99939083 87.966543 82.423027)"><path d="m.808204 15.064556h3.6v3.190239h-3.6z" fill="#f7941f"/><path d="m32.9418532 7.16652524c1.7012818.2975967 3.1621376 1.35846403 3.6937777 2.67527359 5.6631238 13.33193917-2.4544989 26.60590867-7.2202702 28.27079057-4.7657714 1.6648819-21.44257744-2.5800977-28.19849995-18.9258819-.63422934-1.6105375-.24548917-3.4223372.98293053-4.5547237l12.89011162-10.74345832z" fill="#f7941f" transform="matrix(.99939083 -.0348995 .0348995 .99939083 -.726748 .701898)"/><path d="m33.3228057 4.17799976c1.7012818.2975967 3.1621376 1.35846403 3.6937777 2.67527359 5.6631238 13.33193915-2.4544988 26.60590865-7.2202702 28.27079055s-21.44257742-2.5800976-28.19849992-18.9258819c-.63422935-1.6105375-.24548918-3.4223372.98293053-4.5547237l12.89011159-10.7434583z" fill="url(#e)" stroke="url(#f)" stroke-linejoin="round" stroke-width=".75" transform="matrix(.99939083 -.0348995 .0348995 .99939083 -.622218 .713372)"/></g><path d="m102.709303 161.470659 65.130331-17.71327v-2.180095l-64.857819 18.258294-36.3243268-78.1218202-.80391.6022512z" fill="#000" fill-rule="nonzero" opacity=".2"/><path d="m148.295135 121.592213-47.962085 12.263033" fill-rule="nonzero" stroke="url(#g)" stroke-linecap="round"/><path d="m151.020254 126.769938-48.234598 12.535545" fill-rule="nonzero" stroke="url(#h)" stroke-linecap="round"/><path d="m144.752481 133.855246-30.248815 8.175356" fill-rule="nonzero" stroke="url(#i)" stroke-linecap="round"/><circle cx="168.801755" cy="15.510252" fill="url(#j)" opacity=".25" r="4.021065"/><circle cx="216.491329" cy="132.417835" fill="url(#j)" opacity=".25" r="6.812796"/><circle cx="41.275357" cy="26.344113" fill="url(#j)" opacity=".25" r="6.812796"/><g fill-rule="nonzero"><circle cx="130.635795" cy="38.077917" fill="url(#k)" opacity=".25" r="14.801525"/><circle cx="188.838039" cy="64.017576" fill="#2f2e41" r="10.028395"/><path d="m199.656896 189.685687 1.907583 8.175356h-4.632702l-1.907583-9.265403z" fill="#9f616a"/><path d="m177.310924 189.685687v7.630332l-4.632701.545024v-8.175356z" fill="#9f616a"/><path d="m201.019362 103.026889s-.545023 11.71801-1.090047 12.535545c-.545024.817536-5.450237 12.535546-5.450237 12.535546l-2.452607-7.630332s3.815166-6.267773 3.270143-9.810427c-.545024-3.542654-.201659-7.902056-.201659-7.902056z" fill="#9f616a"/><circle cx="185.486184" cy="67.055323" fill="#9f616a" r="7.630332"/><path d="m191.753959 67.872861s-.272511 10.900474 1.635072 12.535545c1.907583 1.6350711-10.900474.2725119-10.900474.2725119s2.725118-7.6303318.545023-9.2654029c-2.180094-1.635071 8.720379-3.542654 8.720379-3.542654z" fill="#9f616a"/><path d="m201.468285 87.3624919c.235106 4.5643945.747542 15.8858571.096101 16.7544451-.817517 1.090023-6.501139.558062-6.929577-.402196-1.618921 3.362682-2.88085 5.852433-2.88085 5.852433s1.36256 4.632701 1.090048 5.722749c-.272512 1.090047 1.362559 4.360189 1.090047 5.722748-.272512 1.36256 4.087678 9.537915 1.907583 20.165877v17.168247s7.35782 29.703791 5.177725 31.883886c-2.180094 2.180095-9.537914.817535-10.900474 0-1.362559-.817536-7.085308-41.966825-7.085308-41.966825l-2.725118-13.898104-.272512 30.521327s.545024 25.616114-1.362559 26.433649c-1.907583.817536-9.265403 1.090048-9.810427-.545023-.425075-1.275222-2.507763-35.205449-3.403896-50.078533-.310449-5.133765.093347-10.285775 1.199826-15.308486 1.134219-5.144392 2.780842-11.188402 4.656682-13.641417 3.542654-4.632702 5.722749-19.3483416 5.722749-19.3483416-3.088467-5.6319116-4.632701-8.4478673-4.632701-8.4478673s4.632701-3.8151659 9.265397-3.8151659c0 0 1.635071-2.9976303 3.815166-2.7251185 2.180095.2725119 9.265403.8175356 9.537915 1.3625593.272512.5450236 1.090047 2.4526066 1.635071 2.9976303.545023.5450237 4.632701 1.3625592 4.905213 4.6327014.019746.2369577-.014879.5611972-.096101.9588252z" fill="url(#l)"/><path d="m175.627624 100.45534c.797678 5.533783 1.496719 10.459915-2.582009 14.916516-4.099041 4.510224-8.722118 8.514711-13.770997 11.928372-.500247 1.32516-7.844313 11.056397-8.217902 7.174717-.373589-3.881681 2.16376-6.924769 5.769487-10.20725 3.605727-3.282482 8.650172-10.404601 11.496427-14.312513 2.846256-3.907913 1.67449-6.344847 1.575626-9.609041-.098865-3.2641929 4.61023.148702 5.729368.109199z" fill="#9f616a"/><path d="m172.67813 192.901082s-.272512 3.052348-1.090047 3.869883c-.817536.817536-2.997631 1.907583-2.725119 4.905214.272512 2.99763 2.043839 3.133886 2.043839 3.133886h.817536 7.630331s.136256-2.861375-.136256-4.223934c-.272511-1.362559-.272511-7.902843-1.090047-7.630332-.817535.272512-2.99763.545024-3.542654 1.635071-.545024 1.090048-2.180095.708101-1.907583-1.689788z" fill="#6b6c71"/><path d="m200.474339 192.901082s.272511 3.052348 1.090047 3.869883c.817536.817536 2.99763 1.907583 2.725119 4.905214-.272512 2.99763-2.043839 3.133886-2.043839 3.133886h-.817536-7.630332s-.136256-2.861375.136256-4.223934.272512-7.902843 1.090048-7.630332c.817535.272512 2.99763.545024 3.542654 1.635071.545023 1.090048 2.180094.708101 1.907583-1.689788z" fill="#6b6c71"/><circle cx="199.702133" cy="50.813524" fill="#2f2e41" r="10.028395"/><path d="m208.352157 59.1176794c-2.633753 1.9035735-6.026591 2.4130211-9.103254 1.3668886s-5.455736-3.5181557-6.383242-6.6326351c.471592 3.7503514 3.011765 6.9169895 6.5705 8.1909358s7.531464.4387792 10.275997-2.1602722c2.744534-2.5990513 3.794624-6.5204527 2.716199-10.1432325.457579 3.6361673-1.105426 7.2322504-4.0762 9.3783154z" fill="#2f2e41"/><circle cx="191.512274" cy="65.688973" fill="#2f2e41" r="7.354157"/><ellipse cx="185.3281" cy="62.931161" fill="#2f2e41" rx="6.518456" ry="5.097767"/><ellipse cx="183.589442" cy="68.154824" fill="#a0616a" rx="1.237141" ry="2.188791"/><path d="m176.220784 83.1335245c-1.375348-.2850244-2.64707-.0125126-3.815166.8175356-1.752144 1.2450722-4.087677 16.6232229-3.270142 16.8957349.817536.272512 8.447867 4.087677 8.992891 1.907583.545024-2.180095 1.907583-19.6208535-1.907583-19.6208535z" fill="#fbc03e"/></g></g></svg>