<?xml version="1.0" encoding="UTF-8"?>
<svg width="180px" height="142px" viewBox="0 0 180 142" version="1.1" xmlns="http://www.w3.org/2000/svg" xmlns:xlink="http://www.w3.org/1999/xlink">
    <!-- Generator: Sketch 55.2 (78181) - https://sketchapp.com -->
    <title>Illustration/2 Options Copy 2</title>
    <desc>Created with Sketch.</desc>
    <defs>
        <linearGradient x1="84.0349412%" y1="48.9133487%" x2="21.3424565%" y2="51.1605708%" id="linearGradient-1">
            <stop stop-color="#FFBF6A" offset="0%"></stop>
            <stop stop-color="#CB7244" offset="100%"></stop>
        </linearGradient>
        <linearGradient x1="65.1676709%" y1="17.8942768%" x2="37.2287663%" y2="84.2897145%" id="linearGradient-2">
            <stop stop-color="#FFBF6A" offset="0%"></stop>
            <stop stop-color="#CB7244" offset="100%"></stop>
        </linearGradient>
        <linearGradient x1="74.1072318%" y1="17.8942768%" x2="29.7016237%" y2="84.2897145%" id="linearGradient-3">
            <stop stop-color="#FFBF6A" offset="0%"></stop>
            <stop stop-color="#CB7244" offset="100%"></stop>
        </linearGradient>
        <linearGradient x1="63.7397916%" y1="17.8942768%" x2="38.4310458%" y2="84.2897145%" id="linearGradient-4">
            <stop stop-color="#FFBF6A" offset="0%"></stop>
            <stop stop-color="#CB7244" offset="100%"></stop>
        </linearGradient>
        <linearGradient x1="84.0349412%" y1="36.4953987%" x2="21.3424565%" y2="64.4232516%" id="linearGradient-5">
            <stop stop-color="#FFBF6A" offset="0%"></stop>
            <stop stop-color="#CB7244" offset="100%"></stop>
        </linearGradient>
        <linearGradient x1="84.0349412%" y1="36.7936534%" x2="21.3424565%" y2="64.1047081%" id="linearGradient-6">
            <stop stop-color="#FFBF6A" offset="0%"></stop>
            <stop stop-color="#CB7244" offset="100%"></stop>
        </linearGradient>
        <linearGradient x1="84.0349412%" y1="37.1213488%" x2="21.3424565%" y2="63.7547213%" id="linearGradient-7">
            <stop stop-color="#FFBF6A" offset="0%"></stop>
            <stop stop-color="#CB7244" offset="100%"></stop>
        </linearGradient>
        <linearGradient x1="64.0305216%" y1="17.8942768%" x2="38.1862501%" y2="84.2897145%" id="linearGradient-8">
            <stop stop-color="#FFBF6A" offset="0%"></stop>
            <stop stop-color="#CB7244" offset="100%"></stop>
        </linearGradient>
        <linearGradient x1="63.9011327%" y1="17.8942768%" x2="38.295196%" y2="84.2897145%" id="linearGradient-9">
            <stop stop-color="#FFBF6A" offset="0%"></stop>
            <stop stop-color="#CB7244" offset="100%"></stop>
        </linearGradient>
        <linearGradient x1="84.0349412%" y1="23.8703695%" x2="21.3424565%" y2="77.9070983%" id="linearGradient-10">
            <stop stop-color="#FFBF6A" offset="0%"></stop>
            <stop stop-color="#CB7244" offset="100%"></stop>
        </linearGradient>
        <linearGradient x1="84.0349412%" y1="36.8769832%" x2="21.3424565%" y2="64.0157098%" id="linearGradient-11">
            <stop stop-color="#FFBF6A" offset="0%"></stop>
            <stop stop-color="#CB7244" offset="100%"></stop>
        </linearGradient>
        <linearGradient x1="84.0349412%" y1="36.2091347%" x2="21.3424565%" y2="64.7289887%" id="linearGradient-12">
            <stop stop-color="#FFBF6A" offset="0%"></stop>
            <stop stop-color="#CB7244" offset="100%"></stop>
        </linearGradient>
        <linearGradient x1="67.3792505%" y1="17.8942768%" x2="35.3666082%" y2="84.2897145%" id="linearGradient-13">
            <stop stop-color="#FFBF6A" offset="0%"></stop>
            <stop stop-color="#CB7244" offset="100%"></stop>
        </linearGradient>
        <linearGradient x1="84.0349412%" y1="19.5952968%" x2="21.3424565%" y2="82.4729827%" id="linearGradient-14">
            <stop stop-color="#FFBF6A" offset="0%"></stop>
            <stop stop-color="#CB7244" offset="100%"></stop>
        </linearGradient>
        <linearGradient x1="73.8327699%" y1="17.8942768%" x2="29.9327216%" y2="84.2897145%" id="linearGradient-15">
            <stop stop-color="#FFBF6A" offset="0%"></stop>
            <stop stop-color="#CB7244" offset="100%"></stop>
        </linearGradient>
        <linearGradient x1="97.7509423%" y1="32.6220186%" x2="2.30503178%" y2="67.2458731%" id="linearGradient-16">
            <stop stop-color="#FFBF6A" offset="0%"></stop>
            <stop stop-color="#CB7244" offset="100%"></stop>
        </linearGradient>
        <linearGradient x1="97.3380067%" y1="33.7713387%" x2="2.02037371%" y2="66.3898034%" id="linearGradient-17">
            <stop stop-color="#FFBF6A" offset="0%"></stop>
            <stop stop-color="#CB7244" offset="100%"></stop>
        </linearGradient>
        <linearGradient x1="84.0349412%" y1="17.8942768%" x2="21.3424565%" y2="84.2897145%" id="linearGradient-18">
            <stop stop-color="#FFBF6A" offset="0%"></stop>
            <stop stop-color="#CB7244" offset="100%"></stop>
        </linearGradient>
        <linearGradient x1="84.0349412%" y1="28.1593407%" x2="21.3424565%" y2="73.3263698%" id="linearGradient-19">
            <stop stop-color="#FFBF6A" offset="0%"></stop>
            <stop stop-color="#CB7244" offset="100%"></stop>
        </linearGradient>
        <linearGradient x1="84.0349412%" y1="28.3504374%" x2="21.3424565%" y2="73.1222738%" id="linearGradient-20">
            <stop stop-color="#FFBF6A" offset="0%"></stop>
            <stop stop-color="#CB7244" offset="100%"></stop>
        </linearGradient>
        <linearGradient x1="74.5481271%" y1="17.8942768%" x2="29.905357%" y2="92.9519556%" id="linearGradient-21">
            <stop stop-color="#FFBF6A" offset="0%"></stop>
            <stop stop-color="#CB7244" offset="100%"></stop>
        </linearGradient>
    </defs>
    <g id="Illustration/2-Options-Copy-2" stroke="none" stroke-width="1" fill="none" fill-rule="evenodd">
        <g id="Illustration/2-Options">
            <ellipse id="Oval" fill-opacity="0.25" fill="url(#linearGradient-1)" fill-rule="nonzero" cx="65.1546392" cy="132.731959" rx="45.6701031" ry="8.40206186"></ellipse>
            <g id="Flowers" transform="translate(86.412371, 91.731959)">
                <g id="Back" transform="translate(3.817106, 7.953146)">
                    <path d="M0.872373433,32.640484 C10.6740582,12.7927417 19.4005822,22.7456815 24.5407472,5.31886393" id="Path-3" stroke="#B9BAC4" stroke-width="0.5"></path>
                    <path d="M8.42704783,15.1686306 C7.91464678,13.9254335 8.50707394,12.5022401 9.75027097,11.9898389 C10.993468,11.4774378 12.4166615,12.0698649 12.9290627,13.3130619 C13.4410015,14.5565452 12.675452,19.0896825 12.675452,19.0896825 C12.675452,19.0896825 8.94122176,16.4119184 8.42704783,15.1686306 Z" id="Path" fill="url(#linearGradient-2)" fill-rule="nonzero"></path>
                    <path d="M29.0085026,4.0802819 C28.2023211,5.15750614 23.9148862,6.81563781 23.9148862,6.81563781 C23.9148862,6.81563781 24.3048485,2.23561943 25.111381,1.16061123 C25.9176258,0.0844508603 27.4436167,-0.13435895 28.5197771,0.671885832 C29.5959375,1.47813061 29.8147473,3.0041215 29.0085026,4.0802819 L29.0085026,4.0802819 Z" id="Path" fill="url(#linearGradient-3)" fill-rule="nonzero"></path>
                    <path d="M29.007698,4.08039092 C28.2015165,5.15761516 23.9140816,6.81574683 23.9140816,6.81574683 C23.9140816,6.81574683 24.304044,2.23572845 25.1105765,1.16072024 C25.9168213,0.084559879 27.4428122,-0.134249931 28.5189726,0.67199485 C29.5951329,1.47823963 29.8139428,3.00423052 29.007698,4.08039092 L29.007698,4.08039092 Z" id="Path" fill="#000000" fill-rule="nonzero" opacity="0.05"></path>
                    <path d="M17.4002829,8.92759509 L17.4004785,8.9298302 C17.2833009,7.59048403 18.2740643,6.40973822 19.6134104,6.29256061 C20.9527566,6.175383 22.1335024,7.16614638 22.25068,8.50549255 C22.3678129,9.84432699 20.2801426,13.9390877 20.2801426,13.9390877 C20.2801426,13.9390877 17.5176113,10.2686646 17.4002829,8.92759509 Z" id="Path" fill="url(#linearGradient-4)" fill-rule="nonzero"></path>
                    <path d="M17.4002829,8.92759509 L17.4004785,8.9298302 C17.2833009,7.59048403 18.2740643,6.40973822 19.6134104,6.29256061 C20.9527566,6.175383 22.1335024,7.16614638 22.25068,8.50549255 C22.3678129,9.84432699 20.2801426,13.9390877 20.2801426,13.9390877 C20.2801426,13.9390877 17.5176113,10.2686646 17.4002829,8.92759509 Z" id="Path" fill="#000000" fill-rule="nonzero" opacity="0.05"></path>
                    <path d="M8.42704783,15.1686306 C7.91464678,13.9254335 8.50707394,12.5022401 9.75027097,11.9898389 C10.993468,11.4774378 12.4166615,12.0698649 12.9290627,13.3130619 C13.4410015,14.5565452 12.675452,19.0896825 12.675452,19.0896825 C12.675452,19.0896825 8.94122176,16.4119184 8.42704783,15.1686306 Z" id="Path" fill="#000000" fill-rule="nonzero" opacity="0.05"></path>
                    <path d="M27.7302912,12.1677364 C26.4389221,12.5442268 22.0234131,11.2954191 22.0234131,11.2954191 C22.0234131,11.2954191 25.0889101,7.87410915 26.3774574,7.49110897 C27.6686564,7.11506545 29.0202236,7.85694553 29.3962671,9.14814451 C29.7723107,10.4393435 29.0304307,11.7909106 27.7392317,12.1669542 L27.7302912,12.1677364 Z" id="Path" fill="url(#linearGradient-5)" fill-rule="nonzero"></path>
                    <path d="M27.7302912,12.1677364 C26.4389221,12.5442268 22.0234131,11.2954191 22.0234131,11.2954191 C22.0234131,11.2954191 25.0889101,7.87410915 26.3774574,7.49110897 C27.6686564,7.11506545 29.0202236,7.85694553 29.3962671,9.14814451 C29.7723107,10.4393435 29.0304307,11.7909106 27.7392317,12.1669542 L27.7302912,12.1677364 Z" id="Path" fill="#000000" fill-rule="nonzero" opacity="0.05"></path>
                    <path d="M19.2927327,21.431243 C17.9863125,21.0950952 14.7987981,17.7929302 14.7987981,17.7929302 C14.7987981,17.7929302 19.1798604,16.3826228 20.4787931,16.7104168 C21.3392783,16.9064942 22.0262491,17.5529316 22.2742308,18.3999183 C22.5222125,19.2469049 22.2923617,20.1617704 21.6735025,20.7909719 C21.0546433,21.4201734 20.1437127,21.6651541 19.2927327,21.431243 L19.2927327,21.431243 Z" id="Path" fill="url(#linearGradient-6)" fill-rule="nonzero"></path>
                    <path d="M19.2927327,21.431243 C17.9863125,21.0950952 14.7987981,17.7929302 14.7987981,17.7929302 C14.7987981,17.7929302 19.1798604,16.3826228 20.4787931,16.7104168 C21.3392783,16.9064942 22.0262491,17.5529316 22.2742308,18.3999183 C22.5222125,19.2469049 22.2923617,20.1617704 21.6735025,20.7909719 C21.0546433,21.4201734 20.1437127,21.6651541 19.2927327,21.431243 L19.2927327,21.431243 Z" id="Path" fill="#000000" fill-rule="nonzero" opacity="0.05"></path>
                    <path d="M11.2869303,27.024794 C9.94642205,26.9168509 6.24462936,24.1979611 6.24462936,24.1979611 C6.24462936,24.1979611 10.3171423,22.0669098 11.6572594,22.1703827 C12.5304343,22.2288051 13.3050583,22.7514146 13.6861571,23.5392034 C14.067256,24.3269922 13.9961774,25.2587169 13.4999878,25.9795799 C13.0037982,26.7004429 12.1588629,27.0995009 11.2869303,27.024794 L11.2869303,27.024794 Z" id="Path" fill="url(#linearGradient-7)" fill-rule="nonzero"></path>
                    <path d="M11.2869303,27.024794 C9.94642205,26.9168509 6.24462936,24.1979611 6.24462936,24.1979611 C6.24462936,24.1979611 10.3171423,22.0669098 11.6572594,22.1703827 C12.5304343,22.2288051 13.3050583,22.7514146 13.6861571,23.5392034 C14.067256,24.3269922 13.9961774,25.2587169 13.4999878,25.9795799 C13.0037982,26.7004429 12.1588629,27.0995009 11.2869303,27.024794 L11.2869303,27.024794 Z" id="Path" fill="#000000" fill-rule="nonzero" opacity="0.05"></path>
                    <path d="M0.230589355,23.0105346 C-0.0639358876,21.6985211 0.760901198,20.3961642 2.07291461,20.1016388 C3.38492802,19.8071135 4.68728504,20.6319504 4.98181052,21.9439638 C5.27677489,23.2559789 3.75542388,27.5939822 3.75542388,27.5939822 C3.75542388,27.5939822 0.525553727,24.3225496 0.230589355,23.0105346 L0.230589355,23.0105346 Z" id="Path" fill="url(#linearGradient-8)" fill-rule="nonzero"></path>
                    <path d="M0.230589355,23.0105346 C-0.0639358876,21.6985211 0.760901198,20.3961642 2.07291461,20.1016388 C3.38492802,19.8071135 4.68728504,20.6319504 4.98181052,21.9439638 C5.27677489,23.2559789 3.75542388,27.5939822 3.75542388,27.5939822 C3.75542388,27.5939822 0.525553727,24.3225496 0.230589355,23.0105346 L0.230589355,23.0105346 Z" id="Path" fill="#000000" fill-rule="nonzero" opacity="0.05"></path>
                </g>
                <g id="Front">
                    <path d="M4.6894796,40.5936298 C6.32801385,18.8754039 18.296991,22.4623687 15.461499,5.51413028" id="Path-3" stroke="#B9BAC4" stroke-width="0.5" stroke-linecap="round" stroke-linejoin="round"></path>
                    <path d="M19.201127,3.04015656 C18.8998837,4.35089015 15.6534247,7.60465383 15.6534247,7.60465383 C15.6534247,7.60465383 14.1562305,3.25765466 14.4578248,1.94913709 C14.6341367,1.08243587 15.2666557,0.379548356 16.1100272,0.113125057 C16.9533987,-0.153298243 17.874921,0.0586635267 18.5171349,0.666790262 C19.1593489,1.274917 19.4212042,2.1835219 19.201127,3.04015656 L19.201127,3.04015656 Z" id="Path" fill="url(#linearGradient-9)" fill-rule="nonzero"></path>
                    <path d="M21.3314435,10.9964605 C20.3037005,11.8633937 15.7525546,12.5138165 15.7525546,12.5138165 C15.7525546,12.5138165 17.1716496,8.13971489 18.1926872,7.27336836 C18.8577536,6.71268356 19.771422,6.54939812 20.5895225,6.84502008 C21.4076229,7.14064204 22.0058665,7.8502594 22.1589006,8.70656616 C22.3119347,9.56287293 21.9965098,10.4357757 21.3314435,10.9964605 Z" id="Path" fill="url(#linearGradient-10)" fill-rule="nonzero"></path>
                    <path d="M17.5378408,22.3167298 C16.2065486,22.5458139 11.9556053,20.8096415 11.9556053,20.8096415 C11.9556053,20.8096415 15.3836896,17.7484963 16.6991404,17.5185458 C18.0243382,17.2894141 19.2843714,18.1779511 19.5135032,19.503149 C19.7426351,20.8283468 18.8540981,22.08838 17.5289003,22.3175119 L17.5378408,22.3167298 Z" id="Path" fill="url(#linearGradient-11)" fill-rule="nonzero"></path>
                    <path d="M12.0825315,31.7145712 C10.8154964,32.163256 6.32801385,31.1729942 6.32801385,31.1729942 C6.32801385,31.1729942 9.18651334,27.5738507 10.4535485,27.1251659 C11.2779944,26.8137646 12.2063652,26.9722719 12.880782,27.5395847 C13.5551988,28.1068975 13.8703337,28.9944148 13.7047048,29.8600064 C13.5390759,30.725598 12.9185506,31.434079 12.082336,31.712336 L12.0825315,31.7145712 Z" id="Path" fill="url(#linearGradient-12)" fill-rule="nonzero"></path>
                    <path d="M10.6642754,11.4948554 L10.6646665,11.4993257 C10.0469287,10.3258735 10.4820717,8.87386078 11.6433619,8.23355232 C12.8046521,7.59324386 14.264806,8.00023389 14.9274459,9.14892804 C15.577739,10.3262536 15.3283604,14.9155818 15.3283604,14.9155818 C15.3283604,14.9155818 11.3123333,12.6723765 10.6642754,11.4948554 Z" id="Path" fill="url(#linearGradient-13)" fill-rule="nonzero"></path>
                    <path d="M4.98503016,21.3881466 C4.33878592,20.791385 4.06474431,19.8924087 4.26819904,19.036627 C4.47165376,18.1808453 5.1209549,17.5013858 5.96662461,17.2593138 C6.81229432,17.0172419 7.72277818,17.2502148 8.34824536,17.8687185 C9.32134755,18.797084 10.4565676,23.2517622 10.4565676,23.2517622 C10.4565676,23.2517622 5.95589723,22.3167076 4.98503016,21.3881466 L4.98503016,21.3881466 Z" id="Path" fill="url(#linearGradient-14)" fill-rule="nonzero"></path>
                    <path d="M0.481425622,31.7759421 L0.479190506,31.7761377 C-0.0389622993,31.0775785 -0.145078332,30.1556519 0.200815291,29.3576389 C0.546708915,28.5596258 1.29206272,28.0067634 2.15610914,27.9073095 C3.02015555,27.8078557 3.87162535,28.1769198 4.3897781,28.875479 C5.19376429,29.9560259 5.56071843,34.5364765 5.56071843,34.5364765 C5.56071843,34.5364765 1.28317669,32.8566845 0.481425622,31.7759421 Z" id="Path" fill="url(#linearGradient-15)" fill-rule="nonzero"></path>
                </g>
            </g>
            <path d="M6.37966913,0 L74.8966195,0 C78.4200135,0 81.2762887,2.85627516 81.2762887,6.37966913 L81.2762887,43.6409494 C81.2762887,47.1643434 78.4200135,50.0206186 74.8966195,50.0206186 L6.37966913,50.0206186 C2.85627516,50.0206186 0,47.1643434 0,43.6409494 L0,6.37966913 C0,2.85627516 2.85627516,0 6.37966913,0 Z M6.37966913,2 C3.96084466,2 2,3.96084466 2,6.37966913 L2,43.6409494 C2,46.0597739 3.96084466,48.0206186 6.37966913,48.0206186 L74.8966195,48.0206186 C77.315444,48.0206186 79.2762887,46.0597739 79.2762887,43.6409494 L79.2762887,6.37966913 C79.2762887,3.96084466 77.315444,2 74.8966195,2 L6.37966913,2 Z" id="Path" fill="url(#linearGradient-16)" fill-rule="nonzero"></path>
            <rect id="Rectangle" fill="url(#linearGradient-17)" fill-rule="nonzero" x="96.9072165" y="10.3612545" width="83.0927835" height="49.4845361" rx="4.70932165"></rect>
            <circle id="Oval" fill="url(#linearGradient-18)" opacity="0.25" cx="144.56052" cy="97.6113914" r="9.91364301"></circle>
            <circle id="Oval-Copy-4" fill="url(#linearGradient-18)" opacity="0.25" cx="98.985808" cy="75.9961172" r="6.9395501"></circle>
            <circle id="Oval-Copy-3" fill="url(#linearGradient-18)" opacity="0.25" cx="16.3981791" cy="91.6545698" r="4.9568215"></circle>
            <circle id="Oval-Copy-5" fill="url(#linearGradient-18)" opacity="0.25" cx="138.453608" cy="70.6768458" r="3.46977505"></circle>
            <path d="M70.9278351,56.185567 C70.9278351,56.185567 71.3402062,59.2783505 70.3092784,60.5154639 C69.2783505,61.7525773 67.628866,70 67.628866,70 L67.628866,74.9484536 C67.628866,74.9484536 74.0206186,65.6701031 75.257732,61.9587629 C76.4948454,58.2474227 75.257732,55.3608247 75.257732,55.3608247 L70.9278351,56.185567 Z" id="Path" fill="#FFC1C7" fill-rule="nonzero"></path>
            <path d="M63.6082474,128.556701 C63.6082474,128.556701 68.556701,129.587629 68.7628866,128.556701 C68.8947463,127.915801 69.1023913,127.292866 69.3814433,126.701031 C69.3814433,126.701031 73.8665649,126.887911 72.6955835,130.82 C72.5781633,131.207493 72.3218399,131.538007 71.9757608,131.748169 C70.9076124,132.401835 68.3915258,133.943441 67.1134021,134.742268 C66.152732,135.34268 64.7724371,134.894043 63.7871567,134.414639 C63.0609473,134.058773 62.6662677,133.257751 62.8265711,132.465082 L63.6082474,128.556701 Z" id="Path" fill="url(#linearGradient-19)" fill-rule="nonzero"></path>
            <path d="M49.3814433,129.175258 C49.3814433,129.175258 44.4329897,130.206186 44.2268041,129.175258 C44.0949444,128.534358 43.8872994,127.911423 43.6082474,127.319588 C43.6082474,127.319588 39.1317526,127.506107 40.2907361,131.427216 C40.4098505,131.82215 40.6709837,132.158989 41.0237711,132.372769 C42.0974557,133.029814 44.6020742,134.564441 45.8762887,135.360825 C46.9283113,136.01834 48.4835629,135.417788 49.4721959,134.89647 C50.0362983,134.601994 50.339011,133.971115 50.2157567,133.346827 L49.3814433,129.175258 Z" id="Path" fill="url(#linearGradient-20)" fill-rule="nonzero"></path>
            <path d="M43.1958763,58.8659794 C43.1958763,58.8659794 42.7835052,61.9587629 43.814433,63.1958763 C44.8453608,64.4329897 46.4948454,69.1752577 46.4948454,69.1752577 L46.4948454,74.1237113 C46.4948454,74.1237113 40.1030928,68.3505155 38.8659794,64.6391753 C37.628866,60.9278351 38.8659794,58.0412371 38.8659794,58.0412371 L43.1958763,58.8659794 Z" id="Path" fill="#FFC1C7" fill-rule="nonzero"></path>
            <circle id="Oval" fill="#FFC1C7" fill-rule="nonzero" cx="57.628866" cy="28.3505155" r="5.15463918"></circle>
            <path d="M61.7525773,30.4123711 C61.7525773,30.4123711 60.3092784,37.0103093 61.7525773,37.8350515 C63.1958763,38.6597938 53.0927835,37.8350515 53.0927835,37.8350515 C53.0927835,37.8350515 55.3608247,32.2680412 54.3298969,30.4123711 C53.2989691,28.556701 61.7525773,30.4123711 61.7525773,30.4123711 Z" id="Path" fill="#FFC1C7" fill-rule="nonzero"></path>
            <path d="M66.7010309,74.3298969 C66.7010309,74.3298969 68.556701,77.0103093 67.9381443,85.257732 C67.3195876,93.5051546 66.7010309,102.164948 66.7010309,102.164948 C66.7010309,102.164948 71.2371134,128.14433 69.7938144,128.762887 C68.3505155,129.381443 63.6082474,130 62.9896907,129.381443 C62.371134,128.762887 59.4845361,104.639175 59.4845361,104.639175 L56.8041237,84.8453608 L52.6804124,107.525773 C52.6804124,107.525773 50.4123711,129.587629 48.7628866,130.618557 C47.5837113,131.355536 45.2454928,130.828089 44.0079629,130.46739 C43.5302545,130.330151 43.2086026,129.883706 43.2296577,129.387122 C43.3808103,125.917674 44.0594742,112.225493 45.6701031,103.814433 C47.5257732,94.1237113 43.814433,74.742268 47.1134021,74.3298969 C50.4123711,73.9175258 66.7010309,74.3298969 66.7010309,74.3298969 Z" id="Path" fill="#B9BAC4" fill-rule="nonzero"></path>
            <path d="M63.6082474,25.257732 C63.6082474,25.257732 62.7835052,25.8762887 62.5773196,27.3195876 C62.371134,28.7628866 61.1050021,26.4972041 60.810233,29.4857155 C60.5154639,32.4742268 55.5670103,34.5360825 53.7113402,33.0927835 C51.8556701,31.6494845 48.7628866,22.5773196 53.0927835,21.1340206 C57.4226804,19.6907216 61.7525773,19.8969072 62.5773196,21.3402062 C63.4020619,22.7835052 63.6082474,25.257732 63.6082474,25.257732 Z" id="Path" fill="#DC8B50" fill-rule="nonzero"></path>
            <path d="M59.573132,29.4857072 C59.8678866,26.4971979 61.1340206,28.7628866 61.3402062,27.3195876 C61.5463918,25.8762887 62.371134,25.257732 62.371134,25.257732 C62.371134,25.257732 62.1649485,22.7835052 61.3402062,21.3402062 C60.9456041,20.6496412 59.7474536,20.2431835 58.1319216,20.1642041 C60.3607237,20.0620928 62.0874227,20.4828866 62.5773196,21.3402062 C63.4020619,22.7835052 63.6082474,25.257732 63.6082474,25.257732 C63.6082474,25.257732 62.7835052,25.8762887 62.5773196,27.3195876 C62.371134,28.7628866 61.105,26.4971979 60.8102454,29.4857072 C60.5603155,32.0193155 56.9663134,33.8858763 54.7470495,33.5162928 C56.8620124,33.2258536 59.3659897,31.5855299 59.573132,29.4857072 Z" id="Path" fill="#000000" fill-rule="nonzero" opacity="0.1"></path>
            <path d="M45.8508692,55.5856298 C44.9823284,58.137827 44.1197999,60.6224681 44.0206186,60.7216495 C43.814433,60.9278351 39.6907216,60.1030928 38.2474227,58.8659794 C36.8041237,57.628866 41.7525773,45.4639175 41.7525773,45.4639175 C41.7526053,45.4638244 42.9897303,41.3401922 46.4948454,40.1030928 C48.5692246,39.3806109 50.5173348,38.3369804 52.2680412,37.0103093 C52.2680412,37.0103093 53.0927835,33.2989691 56.185567,33.7113402 C59.2783505,34.1237113 61.3402062,33.9175258 61.9587629,35.9793814 C62.5773196,38.0412371 69.1752577,39.6907216 69.1752577,39.6907216 C69.1752577,39.6907216 70.197562,39.8185097 70.5319384,41.1807066 C71.5322402,42.3419193 72.3209712,43.6703794 72.8616124,45.1056495 C74.2152021,48.7000206 77.1247423,57.560233 76.0824742,58.4536082 C74.6391753,59.6907216 70.5154639,60.5154639 70.3092784,60.3092784 C70.1883363,60.1883363 68.7195172,55.7399996 67.5256789,52.0825122 C66.8276651,53.8610264 66.2886598,55.1546392 66.2886598,55.1546392 C66.2886598,55.1546392 66.4948454,63.4020619 67.5257732,67.1134021 C68.556701,70.8247423 68.556701,75.3608247 66.2886598,76.3917526 C64.0206186,77.4226804 49.7938144,81.1340206 46.4948454,76.5979381 C46.4948454,76.5979381 44.6391753,70 45.8762887,67.3195876 C46.8271224,65.2594478 46.1945521,58.5708961 45.8508692,55.5856298 Z" id="Combined-Shape" fill="url(#linearGradient-21)" fill-rule="nonzero"></path>
        </g>
    </g>
</svg>