<?xml version="1.0" encoding="UTF-8"?>
<svg width="295px" height="132px" viewBox="0 0 295 132" version="1.1" xmlns="http://www.w3.org/2000/svg" xmlns:xlink="http://www.w3.org/1999/xlink">
    <!-- Generator: Sketch 55.2 (78181) - https://sketchapp.com -->
    <title>Illustration/Borrowed Copy 2</title>
    <desc>Created with Sketch.</desc>
    <defs>
        <linearGradient x1="84.0349412%" y1="17.8942768%" x2="21.3424565%" y2="84.2897145%" id="linearGradient-1">
            <stop stop-color="#FFBF6A" offset="0%"></stop>
            <stop stop-color="#CB7244" offset="100%"></stop>
        </linearGradient>
        <linearGradient x1="84.0349412%" y1="49.9979452%" x2="21.3424565%" y2="50.0021945%" id="linearGradient-2">
            <stop stop-color="#FFBF6A" offset="0%"></stop>
            <stop stop-color="#CB7244" offset="100%"></stop>
        </linearGradient>
        <linearGradient x1="89.6690253%" y1="10.6403088%" x2="9.27869244%" y2="100%" id="linearGradient-3">
            <stop stop-color="#FFBF6A" offset="0%"></stop>
            <stop stop-color="#CB7244" offset="100%"></stop>
        </linearGradient>
        <linearGradient x1="50.0019083%" y1="17.8942768%" x2="49.989592%" y2="51.3555277%" id="linearGradient-4">
            <stop stop-color="#FFBF6A" offset="0%"></stop>
            <stop stop-color="#CB7244" offset="100%"></stop>
        </linearGradient>
        <linearGradient x1="73.4129831%" y1="17.8942768%" x2="30.2861836%" y2="84.2897145%" id="linearGradient-5">
            <stop stop-color="#FFBF6A" offset="0%"></stop>
            <stop stop-color="#CB7244" offset="100%"></stop>
        </linearGradient>
        <linearGradient x1="55.2226954%" y1="17.8942768%" x2="45.6024716%" y2="84.2897145%" id="linearGradient-6">
            <stop stop-color="#FFBF6A" offset="0%"></stop>
            <stop stop-color="#CB7244" offset="100%"></stop>
        </linearGradient>
        <linearGradient x1="100%" y1="33.6513409%" x2="0%" y2="66.3486591%" id="linearGradient-7">
            <stop stop-color="#FFBF6A" offset="0%"></stop>
            <stop stop-color="#CB7244" offset="100%"></stop>
        </linearGradient>
    </defs>
    <g id="Illustration/Borrowed-Copy-2" stroke="none" stroke-width="1" fill="none" fill-rule="evenodd">
        <g id="Illustration/Borrowed">
            <circle id="Oval-2" fill="url(#linearGradient-1)" fill-rule="nonzero" opacity="0.25" cx="63.8834899" cy="13.564949" r="12.98"></circle>
            <rect id="Rectangle" fill="url(#linearGradient-2)" fill-rule="nonzero" opacity="0.25" x="0" y="129.512699" width="295" height="2.36" rx="1.18"></rect>
            <path d="M156.54424,13.9897798 L157.865149,2.43182914 L166.84341,2.43182914 L165.522501,13.9897798 L175.783371,13.9897798 L177.104279,2.43182914 L186.08254,2.43182914 L184.761632,13.9897798 L193.347789,13.9897798 C223.797874,13.9897798 223.797874,81.1308977 188.227116,81.1308977 L177.088361,81.1308977 L175.821671,92.2144378 L166.84341,92.2144378 L168.1101,81.1308977 L157.849231,81.1308977 L156.58254,92.2144378 L147.604279,92.2144378 L148.87097,81.1308977 L131.394386,81.1308977 L123.788116,130.692699 L99.0935318,130.692699 L115.954318,42.9564383 L137.897417,42.9564383 L135.37478,62.1418845 C157.669726,62.1418845 173.226275,62.1418845 182.044425,62.1418845 C195.271652,62.1418845 197.510293,32.4256027 185.267054,32.4256027 C177.104894,32.4256027 144.456433,32.4256027 87.3216708,32.4256027 L99.0935318,13.9897798 L156.54424,13.9897798 Z" id="pascalcoin-mark" fill="url(#linearGradient-3)"></path>
            <circle id="Oval" fill="url(#linearGradient-1)" fill-rule="nonzero" opacity="0.25" cx="237.891784" cy="71.3245106" r="3.5819413"></circle>
            <path d="M276.553671,119.85427 L276.553671,79.070493" id="Path" stroke="url(#linearGradient-4)" stroke-width="0.641304348" fill-rule="nonzero"></path>
            <circle id="Oval" fill="url(#linearGradient-1)" fill-rule="nonzero" cx="276.553671" cy="79.070493" r="5.76740269"></circle>
            <path d="M265.173688,101.757043 C256.842955,114.532614 259.125577,130.781495 259.125577,130.781495 C259.125577,130.781495 274.914991,126.317101 283.245724,113.541518 C291.576457,100.765935 289.293835,84.5170664 289.293835,84.5170664 C289.293835,84.5170664 273.504421,88.981476 265.173688,101.757043 Z" id="Path" fill="#B9BAC4" fill-rule="nonzero"></path>
            <path d="M259.102583,130.781495 C259.102583,130.781495 258.899778,130.749143 258.526524,130.673621 C258.228791,130.61322 257.818878,130.526915 257.31834,130.408244 C252.843727,129.353231 240.947367,125.786922 233.169655,116.410506 C223.435101,104.669497 223.845014,88.2661591 223.845014,88.2661591 C223.845014,88.2661591 238.729489,90.684701 248.53739,101.228309 C248.962418,101.681376 249.375935,102.150986 249.777941,102.637139 C258.248216,112.852812 259.037848,126.598138 259.100424,129.996172 C259.109048,130.505346 259.102583,130.781495 259.102583,130.781495 Z" id="Path" fill="url(#linearGradient-5)" fill-rule="nonzero"></path>
            <path d="M259.100424,129.996184 C258.880356,130.261562 259.47576,130.427333 259.47576,130.692699 C259.47576,130.958064 258.208579,130.615817 257.31834,130.408256 C255.068088,127.271282 247.829744,116.117103 248.388522,103.232618 C248.41873,102.557324 248.468353,101.889225 248.53739,101.228322 C248.962418,101.681388 249.375935,102.150998 249.777941,102.637151 C258.248216,112.852833 259.037848,126.598166 259.100424,129.996184 Z" id="Path" fill="#000000" fill-rule="nonzero" opacity="0.05"></path>
            <path d="M271.08733,103.665234 C270.428851,118.902775 259.117696,130.789507 259.117696,130.789507 C259.117696,130.789507 248.874154,117.971302 249.532639,102.733761 C250.191124,87.4962201 261.502273,75.6094882 261.502273,75.6094882 C261.502273,75.6094882 271.745821,88.4276933 271.08733,103.665234 Z" id="Path" fill="url(#linearGradient-6)" fill-rule="nonzero"></path>
            <g id="Group-4" transform="translate(24.966241, 72.519440)">
                <circle id="Oval" fill="url(#linearGradient-1)" fill-rule="nonzero" cx="13.6164427" cy="13.1027796" r="13.0489494"></circle>
                <path d="M13.6283495,57.9805596 L13.6283495,10.0343337" id="Path" stroke="#B9BAC4" stroke-width="0.641304348" stroke-linecap="round" fill-rule="nonzero"></path>
                <circle id="Oval" fill="#B9BAC4" fill-rule="nonzero" cx="13.6283495" cy="10.0343337" r="3.34731247"></circle>
                <path d="M13.6283495,23.6664487 C13.6283495,23.6664487 13.1501594,13.3816462 3.34732469,14.5771169" id="Path" fill="#B9BAC4" fill-rule="nonzero"></path>
                <path d="M13.6283495,57.3078791 C13.6283495,57.3078791 15.7801944,37.5301263 3.34732469,36.5737522" id="Path" stroke="#B9BAC4" stroke-width="0.641304348"></path>
                <circle id="Oval" fill="#B9BAC4" fill-rule="nonzero" cx="3.34731247" cy="36.5737522" r="3.34731247"></circle>
            </g>
            <g id="Group" transform="translate(57.483865, 48.250000)">
                <path d="M13.6283495,82.3377096 L13.6283495,3.38471579" id="Path" stroke="#B9BAC4" stroke-width="0.641304348" stroke-linecap="round" fill-rule="nonzero"></path>
                <circle id="Oval" fill="#B9BAC4" fill-rule="nonzero" cx="13.6283495" cy="3.34731247" r="3.34731247"></circle>
                <circle id="Oval" fill="#B9BAC4" fill-rule="nonzero" cx="3.34731247" cy="60.4702055" r="3.34731247"></circle>
                <path d="M13.6283495,20.4455461 C13.6283495,20.4455461 13.1501625,10.1607467 3.34732469,11.3562143" id="Path" fill="#B9BAC4" fill-rule="nonzero"></path>
                <path d="M13.6283495,49.6018008 C13.6283495,49.6018008 13.1501625,39.3170014 3.34732469,40.5124691" id="Path" fill="#B9BAC4" fill-rule="nonzero"></path>
                <path d="M13.6283495,81.4175997 C13.6283495,81.4175997 15.7801944,61.4265796 3.34732469,60.4702055" id="Path" stroke="#B9BAC4" stroke-width="0.641304348"></path>
                <circle id="Oval" fill="#B9BAC4" fill-rule="nonzero" cx="23.9108524" cy="60.4702055" r="3.34731247"></circle>
                <path d="M13.6298154,81.4175997 C13.6298154,81.4175997 11.4779705,61.4265796 23.9108402,60.4702055" id="Path" stroke="#B9BAC4" stroke-width="0.641304348"></path>
                <circle id="Oval" fill="#B9BAC4" fill-rule="nonzero" cx="24.1147414" cy="29.0711689" r="3.34731247"></circle>
                <path d="M13.8337043,48.9522237 C13.8337043,48.9522237 11.6818595,30.0275431 24.1147292,29.0711781" id="Path" stroke="#B9BAC4" stroke-width="0.641304348"></path>
            </g>
            <circle id="Oval" fill="url(#linearGradient-1)" fill-rule="nonzero" opacity="0.25" cx="255.364482" cy="31.9821532" r="5.49689441"></circle>
            <g id="Group-3" transform="translate(147.327129, 21.000000)">
                <rect id="Rectangle" fill="#2F2E41" fill-rule="nonzero" x="11.7420479" y="3.331268" width="9.35539974" height="9.37207976"></rect>
                <path d="M15.2210477,9.95896215 C15.2210477,9.95896215 15.9954166,12.6692365 14.6402702,12.8628493 C13.7993096,12.9939261 13.0023907,13.3259765 12.3171636,13.8308127 L14.8338617,17.1218767 L19.4800751,17.1218767 L22.3839622,14.2179895 C22.3839622,14.2179895 18.5121178,11.3141024 19.2864866,9.57177923 C20.0608555,7.82945609 15.2210477,9.95896215 15.2210477,9.95896215 Z" id="Path" fill="#FFB9B9" fill-rule="nonzero"></path>
                <path d="M15.2210477,9.95896215 C15.2210477,9.95896215 15.9954166,12.6692365 14.6402702,12.8628493 C13.7993096,12.9939261 13.0023907,13.3259765 12.3171636,13.8308127 L14.8338617,17.1218767 L19.4800751,17.1218767 L22.3839622,14.2179895 C22.3839622,14.2179895 18.5121178,11.3141024 19.2864866,9.57177923 C20.0608555,7.82945609 15.2210477,9.95896215 15.2210477,9.95896215 Z" id="Path" fill="#000000" fill-rule="nonzero" opacity="0.1"></path>
                <polygon id="Path" fill="#FFB9B9" fill-rule="nonzero" points="16.3825812 43.6440227 20.835371 45.19262 23.9325656 45.3862329 23.7389528 42.6759585 17.3506453 40.7865538"></polygon>
                <path d="M22.093546,43.0632178 C22.093546,43.0632178 22.093546,45.7734921 22.4807503,45.7734921 C22.8679332,45.7734921 28.0949118,45.1927147 29.6436618,45.7734921 C31.1924118,46.3542695 33.5155032,44.2247543 32.3539361,43.0632178 C31.1923691,41.9016812 29.2977086,40.1593306 28.1155252,40.5465197 C26.9333417,40.9337087 22.093546,41.9016629 22.093546,41.9016629 L22.093546,43.0632178 Z" id="Path" fill="#B9BAC4" fill-rule="nonzero"></path>
                <path d="M7.86454472,40.5465197 C7.86454472,40.5465197 5.5414411,45.19273 7.09017583,45.5799159 C8.63891056,45.9671019 10.3812429,45.3863214 10.5748343,45.19273 C10.7684258,44.9991385 13.4787215,44.2247696 13.8659013,44.6119556 C14.2530873,44.9991415 14.2530873,43.0632178 14.2530873,43.0632178 L7.86454472,40.5465197 Z" id="Path" fill="#B9BAC4" fill-rule="nonzero"></path>
                <path d="M22.093546,43.0632178 C22.093546,43.0632178 22.093546,45.7734921 22.4807503,45.7734921 C22.8679332,45.7734921 28.0949118,45.1927147 29.6436618,45.7734921 C31.1924118,46.3542695 33.5155032,44.2247543 32.3539361,43.0632178 C31.1923691,41.9016812 29.2977086,40.1593306 28.1155252,40.5465197 C26.9333417,40.9337087 22.093546,41.9016629 22.093546,41.9016629 L22.093546,43.0632178 Z" id="Path" fill-opacity="0.1" fill="#000000" fill-rule="nonzero"></path>
                <path d="M7.86454472,40.5465197 C7.86454472,40.5465197 5.5414411,45.19273 7.09017583,45.5799159 C8.63891056,45.9671019 10.3812429,45.3863214 10.5748343,45.19273 C10.7684258,44.9991385 13.4787215,44.2247696 13.8659013,44.6119556 C14.2530873,44.9991415 14.2530873,43.0632178 14.2530873,43.0632178 L7.86454472,40.5465197 Z" id="Path" fill-opacity="0.1" fill="#000000" fill-rule="nonzero"></path>
                <path d="M9.80046848,34.1579801 C9.80046848,34.1579801 6.12221548,39.1913733 8.83250508,40.5465197 C11.5427947,41.901666 24.5134683,41.9016629 25.4814286,40.5465197 C26.449389,39.1913764 26.836575,34.9323582 25.4814286,34.545163 C24.1262823,34.1579801 9.80046848,34.1579801 9.80046848,34.1579801 Z" id="Path" fill="#B9BAC4" fill-rule="nonzero"></path>
                <path d="M9.80046848,34.1579801 C9.80046848,34.1579801 6.12221548,39.1913733 8.83250508,40.5465197 C11.5427947,41.901666 24.5134683,41.9016629 25.4814286,40.5465197 C26.449389,39.1913764 26.836575,34.9323582 25.4814286,34.545163 C24.1262823,34.1579801 9.80046848,34.1579801 9.80046848,34.1579801 Z" id="Path" fill="#000000" fill-rule="nonzero" opacity="0.1"></path>
                <circle id="Oval" fill="#FFB9B9" fill-rule="nonzero" cx="16.7697855" cy="6.86148963" r="4.45261884"></circle>
                <path d="M7.67095326,18.8641998 C7.67095326,18.8641998 6.50940145,29.1245838 7.28377035,29.8989527 C8.05813924,30.6733216 11.1556118,32.8028399 11.1556118,32.8028399 L11.1556118,30.4797332 L9.60687397,27.575846 L11.1556118,20.8001205 L7.67095326,18.8641998 Z" id="Path" fill="#FFB9B9" fill-rule="nonzero"></path>
                <path d="M27.707738,18.5738111 C27.707738,18.5738111 27.0301664,29.1245838 27.0301664,29.5117668 C27.0301664,29.8989497 25.2878372,31.254096 24.7070597,31.254096 C24.1262823,31.254096 23.7390994,30.2861356 23.7390994,30.2861356 L25.0942457,28.7373979 L24.1262854,20.8001205 L27.707738,18.5738111 Z" id="Path" fill="#FFB9B9" fill-rule="nonzero"></path>
                <path d="M25.8686146,33.3836112 C25.8686146,33.3836112 34.5802608,28.5438064 34.7738523,33.3836112 C34.9674437,38.223416 30.3212334,40.1593337 30.3212334,40.1593337 C30.3212334,40.1593337 18.3185202,43.7584772 17.83454,42.4428871 C17.3505598,41.1272971 16.3825995,38.9977819 17.1569684,38.8041904 C17.9313373,38.6105989 18.8992976,38.223413 19.2864805,38.6105989 C19.6736635,38.9977849 24.5134683,35.7067118 24.5134683,35.7067118 L25.8686146,33.3836112 Z" id="Path" fill="#B9BAC4" fill-rule="nonzero"></path>
                <path d="M29.9340475,32.8028338 C29.9340475,32.8028338 28.1917182,33.5772027 27.6109438,34.1579801 C27.0301695,34.7387575 24.2070367,35.2226547 24.2070367,35.2226547" id="Path" stroke="#000000" stroke-width="0.641304348" opacity="0.1" stroke-linecap="round"></path>
                <path d="M24.1056799,21.6137918 C23.9966856,21.8336799 23.9326878,21.9616754 23.9326878,21.9616754 L24.3198707,32.4156509 L9.99404773,32.0284649 L10.9336315,22.0688759 C9.98767393,22.1203411 8.38162993,21.970826 7.09334368,20.6522826 C5.13787481,18.6508868 9.80046848,13.8308066 9.80046848,13.8308066 L13.6723099,13.0564377 C13.6723099,13.0564377 14.6402702,16.1539102 17.7377458,15.5731359 C20.8352214,14.9923615 21.6095872,13.0564377 21.6095872,13.0564377 C21.6095872,13.0564377 23.9326939,14.0243981 24.1262854,14.0243981 C24.3198768,14.0243981 26.836575,14.9923584 26.836575,15.5731359 C26.836575,15.5731359 28.1917182,18.477023 28.5789042,18.8641998 C28.9660902,19.2513766 27.9981268,19.0577913 27.4173524,19.8321602 C26.836578,20.6065291 26.2557975,21.9616754 25.0942457,21.9616754 C24.7802681,21.9616754 24.4380011,21.8202238 24.1056799,21.6137918 Z" id="Combined-Shape" fill="#B9BAC4" fill-rule="nonzero"></path>
                <path d="M10.1876514,35.1259405 C10.1876514,35.1259405 2.8311515,29.8989527 0.314453368,33.7707941 C-2.20224477,37.6426355 11.1556118,42.8696263 13.0915325,43.6439922 C15.0274532,44.418358 16.7697824,45.19273 16.7697824,45.19273 C16.7697824,45.19273 18.5121116,40.9337026 18.5121116,40.1593337 C18.5121116,39.3849648 17.1569684,39.3849678 16.7697824,39.3849678 C16.3825964,39.3849678 14.6402702,38.9977819 14.2530873,38.4170044 C13.8659044,37.836227 10.1876514,35.1259405 10.1876514,35.1259405 Z" id="Path" fill="#B9BAC4" fill-rule="nonzero"></path>
                <path d="M6.12220937,33.7707911 C6.12220937,33.7707911 8.15828272,34.8354718 9.90061197,35.2226547 C11.6429412,35.6098376 13.4476368,34.6669971 12.9298663,35.3193123" id="Path" stroke="#000000" stroke-width="0.641304348" opacity="0.1" stroke-linecap="round"></path>
                <path d="M8.85223282,26.4918066 L9.00688794,34.6885923 C9.01751956,35.252146 9.48073203,35.7016213 10.0443504,35.6953535 L25.2980767,35.5238973 C25.8373498,35.5178394 26.2799015,35.0953566 26.3109619,34.5569447 L26.7739653,26.5315644 C26.7902317,26.2496294 26.6895835,25.9734533 26.4957299,25.7680934 C26.3018762,25.5627334 26.0319557,25.4463461 25.7495519,25.4463461 L9.87816708,25.4463461 C9.60267054,25.4463461 9.3387458,25.5571266 9.14578526,25.7537597 C8.95282471,25.9503928 8.8470387,26.216359 8.85223282,26.4918066 L8.85223282,26.4918066 Z" id="Path" fill="url(#linearGradient-7)" fill-rule="nonzero"></path>
                <path d="M7.08780301,13.8795854 C7.50325829,12.9628256 8.06156258,12.1024883 8.32760922,11.1317948 C8.64649017,9.96833741 8.52230922,8.73733233 8.48437148,7.53155495 C8.42378779,6.46515666 8.51464902,5.39555386 8.75424457,4.35465537 C8.99756351,3.30878581 9.54377259,2.35784086 10.3245882,1.62070164 C12.3533667,-0.1903907 16.0663265,-0.320441114 18.5436089,0.433506816 C19.5202238,0.730736112 20.5605782,1.29675438 20.8027378,2.28846743 C20.8392952,2.43818756 20.8556912,2.59246706 20.8965118,2.7410756 C21.0993319,3.47944595 21.8546998,3.94664838 22.127242,4.66221882 C22.4797487,5.58776147 21.9362066,6.59426422 21.8651562,7.58210806 C21.782208,8.73540537 22.3491486,9.82495397 22.9079628,10.8372285 C23.2401615,11.439001 23.585565,12.0800366 23.5525928,12.766614 C23.5250378,13.1421293 23.4108653,13.5061564 23.219029,13.830147 C22.4952741,15.0241692 21.208219,15.7619432 19.8121302,15.7830714 C19.3656943,15.8188214 18.9193067,15.7134349 18.5359987,15.4817927 C17.9314258,15.0654977 17.7543556,14.2272243 17.8803017,13.5040773 C18.0062477,12.7809303 18.3733273,12.1268762 18.6609401,11.4515461 C18.7491958,11.2443132 18.8288519,11.0335592 18.9022721,10.820692 C20.743624,9.79282121 21.5772895,7.58834 20.8768584,5.59924684 C20.1764273,3.61015367 18.1454257,2.41442455 16.0663101,2.76709114 C13.9871945,3.11975774 12.464099,4.91834481 12.4587675,7.0271518 C12.4534361,9.13595879 13.9674179,10.9422241 16.0447237,11.3053989 C16.2616042,12.3979769 16.1630398,13.5297162 15.7605495,14.5683524 C15.3945461,15.4133902 14.9349593,16.2147318 14.3903997,16.9573638 C14.1676804,17.3380736 13.8708651,17.6702461 13.5175143,17.9342291 C13.284586,18.0721231 13.0345872,18.1788895 12.7739066,18.2518 C11.6804277,18.603473 10.5289475,18.8864439 9.39125829,18.7282403 C8.2535691,18.5700366 7.12684317,17.8838562 6.73916859,16.8026018 C6.39949716,15.8551754 6.67234773,14.7963361 7.08780301,13.8795854 Z" id="Path" fill="#2F2E41" fill-rule="nonzero"></path>
                <ellipse id="Oval" fill="#2F2E41" fill-rule="nonzero" cx="16.5540659" cy="4.36137379" rx="4.72536253" ry="2.67770523"></ellipse>
            </g>
            <circle id="Oval" fill="url(#linearGradient-1)" fill-rule="nonzero" opacity="0.25" cx="11.0847594" cy="71.2724581" r="5.49689441"></circle>
        </g>
    </g>
</svg>