<?xml version="1.0" encoding="UTF-8"?>
<svg width="230px" height="230px" viewBox="0 0 230 230" version="1.1" xmlns="http://www.w3.org/2000/svg" xmlns:xlink="http://www.w3.org/1999/xlink">
    <!-- Generator: Sketch 55.2 (78181) - https://sketchapp.com -->
    <title>Illustration/New Wallet Copy 3</title>
    <desc>Created with Sketch.</desc>
    <defs>
        <linearGradient x1="82.8504589%" y1="16.7011141%" x2="20.8102148%" y2="87.1917517%" id="linearGradient-1">
            <stop stop-color="#ACB7D1" offset="0%"></stop>
            <stop stop-color="#6F70A8" offset="100%"></stop>
        </linearGradient>
        <linearGradient x1="82.8504589%" y1="49.452681%" x2="20.8102148%" y2="50.6113043%" id="linearGradient-2">
            <stop stop-color="#ACB7D1" offset="0%"></stop>
            <stop stop-color="#6F70A8" offset="100%"></stop>
        </linearGradient>
        <linearGradient x1="38.0035517%" y1="13.3441772%" x2="50%" y2="100%" id="linearGradient-3">
            <stop stop-color="#ACB7D1" offset="0%"></stop>
            <stop stop-color="#6F70A8" offset="100%"></stop>
        </linearGradient>
        <linearGradient x1="61.0744823%" y1="16.7011141%" x2="40.1595968%" y2="87.1917517%" id="linearGradient-4">
            <stop stop-color="#ACB7D1" offset="0%"></stop>
            <stop stop-color="#6F70A8" offset="100%"></stop>
        </linearGradient>
        <linearGradient x1="100%" y1="15.9057305%" x2="0%" y2="84.0942695%" id="linearGradient-5">
            <stop stop-color="#ACB7D1" offset="0%"></stop>
            <stop stop-color="#6F70A8" offset="100%"></stop>
        </linearGradient>
        <linearGradient x1="92.405225%" y1="0%" x2="7.59477503%" y2="100%" id="linearGradient-6">
            <stop stop-color="#ACB7D1" offset="0%"></stop>
            <stop stop-color="#6F70A8" offset="100%"></stop>
        </linearGradient>
        <linearGradient x1="64.6398064%" y1="16.7011141%" x2="36.9915728%" y2="87.1917517%" id="linearGradient-7">
            <stop stop-color="#ACB7D1" offset="0%"></stop>
            <stop stop-color="#6F70A8" offset="100%"></stop>
        </linearGradient>
        <linearGradient x1="73.2682531%" y1="16.7011141%" x2="29.3246324%" y2="87.1917517%" id="linearGradient-8">
            <stop stop-color="#ACB7D1" offset="0%"></stop>
            <stop stop-color="#6F70A8" offset="100%"></stop>
        </linearGradient>
        <linearGradient x1="63.2616201%" y1="16.7011141%" x2="38.2161816%" y2="87.1917517%" id="linearGradient-9">
            <stop stop-color="#ACB7D1" offset="0%"></stop>
            <stop stop-color="#6F70A8" offset="100%"></stop>
        </linearGradient>
        <linearGradient x1="82.8504589%" y1="35.9935197%" x2="20.8102148%" y2="65.6439329%" id="linearGradient-10">
            <stop stop-color="#ACB7D1" offset="0%"></stop>
            <stop stop-color="#6F70A8" offset="100%"></stop>
        </linearGradient>
        <linearGradient x1="82.8504589%" y1="36.3028586%" x2="20.8102148%" y2="65.2984302%" id="linearGradient-11">
            <stop stop-color="#ACB7D1" offset="0%"></stop>
            <stop stop-color="#6F70A8" offset="100%"></stop>
        </linearGradient>
        <linearGradient x1="82.8504589%" y1="36.6427324%" x2="20.8102148%" y2="64.9188229%" id="linearGradient-12">
            <stop stop-color="#ACB7D1" offset="0%"></stop>
            <stop stop-color="#6F70A8" offset="100%"></stop>
        </linearGradient>
        <linearGradient x1="63.5422321%" y1="16.7011141%" x2="37.9668394%" y2="87.1917517%" id="linearGradient-13">
            <stop stop-color="#ACB7D1" offset="0%"></stop>
            <stop stop-color="#6F70A8" offset="100%"></stop>
        </linearGradient>
        <linearGradient x1="63.4173462%" y1="16.7011141%" x2="38.0778088%" y2="87.1917517%" id="linearGradient-14">
            <stop stop-color="#ACB7D1" offset="0%"></stop>
            <stop stop-color="#6F70A8" offset="100%"></stop>
        </linearGradient>
        <linearGradient x1="82.8504589%" y1="22.8992995%" x2="20.8102148%" y2="80.2689563%" id="linearGradient-15">
            <stop stop-color="#ACB7D1" offset="0%"></stop>
            <stop stop-color="#6F70A8" offset="100%"></stop>
        </linearGradient>
        <linearGradient x1="82.8504589%" y1="36.3892853%" x2="20.8102148%" y2="65.2018997%" id="linearGradient-16">
            <stop stop-color="#ACB7D1" offset="0%"></stop>
            <stop stop-color="#6F70A8" offset="100%"></stop>
        </linearGradient>
        <linearGradient x1="82.8504589%" y1="35.6966171%" x2="20.8102148%" y2="65.9755454%" id="linearGradient-17">
            <stop stop-color="#ACB7D1" offset="0%"></stop>
            <stop stop-color="#6F70A8" offset="100%"></stop>
        </linearGradient>
        <linearGradient x1="66.7744187%" y1="16.7011141%" x2="35.0948298%" y2="87.1917517%" id="linearGradient-18">
            <stop stop-color="#ACB7D1" offset="0%"></stop>
            <stop stop-color="#6F70A8" offset="100%"></stop>
        </linearGradient>
        <linearGradient x1="82.8504589%" y1="18.46535%" x2="20.8102148%" y2="85.2212647%" id="linearGradient-19">
            <stop stop-color="#ACB7D1" offset="0%"></stop>
            <stop stop-color="#6F70A8" offset="100%"></stop>
        </linearGradient>
        <linearGradient x1="73.003343%" y1="16.7011141%" x2="29.5600224%" y2="87.1917517%" id="linearGradient-20">
            <stop stop-color="#ACB7D1" offset="0%"></stop>
            <stop stop-color="#6F70A8" offset="100%"></stop>
        </linearGradient>
    </defs>
    <g id="Illustration/New-Wallet-Copy-3" stroke="none" stroke-width="1" fill="none" fill-rule="evenodd">
        <g id="Illustration/New-Wallet">
            <g id="Circles" transform="translate(0.094140, 62.268348)" opacity="0.25">
                <circle id="Oval" fill="url(#linearGradient-1)" cx="177.953686" cy="16.3849558" r="16.3849558"></circle>
                <circle id="Oval" fill="url(#linearGradient-1)" fill-rule="nonzero" cx="52.2604181" cy="88.4799566" r="10.5709392"></circle>
                <circle id="Oval" fill="url(#linearGradient-1)" fill-rule="nonzero" cx="31.1294827" cy="63.3110538" r="6.54391474"></circle>
                <circle id="Oval-Copy" fill="url(#linearGradient-1)" fill-rule="nonzero" cx="213.314522" cy="11.5268751" r="6.54391474"></circle>
                <circle id="Oval" fill="url(#linearGradient-1)" fill-rule="nonzero" cx="4.02702446" cy="77.1126588" r="4.02702446"></circle>
                <ellipse id="Oval" fill="url(#linearGradient-2)" cx="114.90586" cy="153.992714" rx="99.2256637" ry="12.7212389"></ellipse>
            </g>
            <g id="Woman" transform="translate(88.050336, 34.132388)" fill-rule="nonzero">
                <path d="M10.1117812,30.4927735 C10.1117812,30.4927735 8.82243874,13.129385 9.42947911,9.95370709 C10.0365195,6.77802916 10.6067126,-2.26168432 7.26910802,0.709863736 C3.93150344,3.68141179 5.11722052,10.4233823 5.11722052,10.4233823 C5.11722052,10.4233823 1.95002283,28.7737139 4.8793576,31.2632909 C7.80869238,33.7528679 10.1117812,30.4927735 10.1117812,30.4927735 Z" id="Path" fill="#A0616A"></path>
                <path d="M12.5155658,47.6636366 C12.5155658,47.6636366 2.58103743,38.8031089 3.11803778,31.2850872 C3.11803778,31.2850872 9.02505511,26.7205758 10.3675577,29.1370824 C11.7100602,31.553589 21.8661456,41.4651486 20.2090351,44.6722642 C18.5519246,47.8793797 12.5155658,47.6636366 12.5155658,47.6636366 Z" id="Path" fill="url(#linearGradient-3)"></path>
                <path d="M53.2697633,38.2532724 C53.2697633,38.2532724 59.1767806,21.874723 59.4452825,18.6527141 C59.7137843,15.4307053 61.5932906,6.57017763 64.0097972,10.3291902 C66.4263039,14.0882027 63.4727935,20.2637219 63.4727935,20.2637219 C63.4727935,20.2637219 61.5932906,38.7902761 58.1027799,40.4012806 C54.6122692,42.012285 53.2697633,38.2532724 53.2697633,38.2532724 Z" id="Path" fill="#A0616A" transform="translate(59.115035, 25.109571) rotate(26.000000) translate(-59.115035, -25.109571) "></path>
                <path d="M31.5791204,113.983316 L47.4206694,113.983316 L48.2261717,122.038339 L44.4671591,122.843841 C44.4671591,122.843841 35.6066348,120.158822 30.5051297,120.964334 C25.4036247,121.769847 31.5791204,113.983316 31.5791204,113.983316 Z" id="Path" fill="#A0616A"></path>
                <path d="M42.0506525,112.909329 C42.0506525,112.909329 49.5686742,107.807814 50.9111801,112.103827 C52.2536861,116.39984 57.086696,131.972884 55.4756916,133.583888 C53.8646871,135.194893 51.9851809,132.241386 51.9851809,132.241386 C51.9851809,132.241386 48.763172,125.528866 46.3466754,125.260364 C43.9301789,124.991862 42.5876629,122.843857 42.5876629,122.843857 C42.5876629,122.843857 49.5686742,117.473841 42.0506525,112.909329 Z" id="Path" fill="url(#linearGradient-4)"></path>
                <path d="M27.5516093,154.526952 C27.5516093,154.526952 30.5051197,166.609485 29.968116,168.488982 C29.4311122,170.368478 38.5601418,169.294484 38.5601418,169.294484 L39.0971455,165.803973 C39.0971455,165.803973 33.7271285,157.211951 33.7271285,153.452938 C33.7271285,149.693926 27.5516093,154.526952 27.5516093,154.526952 Z" id="Path" fill="#A0616A"></path>
                <path d="M38.5601418,163.387477 C38.5601418,163.387477 45.809665,168.757494 42.0506525,171.442502 C38.2916399,174.127511 24.3296005,181.108529 24.3296005,181.108529 C24.3296005,181.108529 19.2280854,181.914031 22.9870979,177.349519 C26.7461105,172.785008 27.8201112,171.979502 28.088613,169.562996 C28.3219479,167.953935 28.8856641,166.410551 29.7443174,165.029885 C29.7443174,165.029885 33.4586267,172.516506 38.5601418,163.387477 Z" id="Path" fill="url(#linearGradient-5)"></path>
                <path d="M16.5430769,98.9472863 C16.5430769,98.9472863 13.5895699,126.871369 18.1540813,135.731896 C22.7185927,144.592424 28.088613,156.674957 27.8201112,157.211961 C27.5516093,157.748964 35.6066348,156.406459 35.6066348,153.989949 C35.6066348,151.573439 26.7461071,127.408372 26.7461071,127.408372 C26.7461071,127.408372 30.5051197,95.9937793 33.4586267,93.8457712 C36.4121336,91.6977631 16.5430769,98.9472863 16.5430769,98.9472863 Z" id="Path" fill="#B5B5BF"></path>
                <path d="M16.5430769,98.9472863 C16.5430769,98.9472863 13.5895699,126.871369 18.1540813,135.731896 C22.7185927,144.592424 28.088613,156.674957 27.8201112,157.211961 C27.5516093,157.748964 35.6066348,156.406459 35.6066348,153.989949 C35.6066348,151.573439 26.7461071,127.408372 26.7461071,127.408372 C26.7461071,127.408372 30.5051197,95.9937793 33.4586267,93.8457712 C36.4121336,91.6977631 16.5430769,98.9472863 16.5430769,98.9472863 Z" id="Path" fill="#000000" opacity="0.1"></path>
                <path d="M22.6116886,20.1423038 C20.6924457,20.4897924 18.7910089,21.5441848 17.8365605,23.3449762 C16.9462525,25.0247689 16.8896258,27.2701035 15.4732039,28.4763752 C14.6276596,29.1964709 13.4796858,29.3629918 12.5356271,29.9286679 C11.1702091,30.8020989 10.3763687,32.3392397 10.4546018,33.9582294 C10.5301958,35.4396139 11.3114889,36.8194739 11.2949076,38.3029257 C11.2733529,40.2315348 9.93976687,41.8238874 8.68548299,43.2197447 L12.8452113,43.9916648 C13.4737572,44.1596128 14.1330326,44.1770938 14.7695954,44.0426906 C15.4880837,43.8299932 16.0808737,43.4838023 16.9973786,43.3651494 C17.9138835,43.2464966 18.9293739,43.2702676 19.8586601,43.8323731 C22.503895,45.4323569 25.2809011,46.802548 28.1069763,48.0049336 C28.938389,48.3586708 29.8810483,48.7127738 30.7014572,48.3311965 C31.3640336,48.0230251 31.776109,47.3026642 32.3993313,46.9128549 C33.5153674,46.2147938 34.9167552,46.7402365 36.1708712,47.0848492 C39.0070217,47.8545375 42.0238985,47.59764 44.689075,46.3594948 C44.1145293,45.6883744 43.3614993,45.219018 42.742361,44.5941547 C42.1232228,43.9692914 41.6223247,43.0844433 41.7858924,42.1945011 C41.9526985,41.2869474 42.7329714,40.6811051 43.264797,39.9486531 C44.0582868,38.7764787 44.3475648,37.3346537 44.067638,35.9471163 C43.7885287,34.5807199 43.1238692,33.3228632 42.1522979,32.3223681 C41.5977335,31.8032418 41.074556,31.251571 40.5855404,30.6702814 C39.6069399,29.3487697 39.3646809,27.5992356 39.0516267,25.9516759 C38.7385725,24.3041161 38.2442955,22.5507128 36.9735579,21.5475038 C34.9491056,19.9492516 31.6615771,20.4940375 29.2948914,20.3353996 C27.0384657,20.1841379 24.862906,20.1423038 22.6116886,20.1423038 Z" id="Path" fill="#2F2E41"></path>
                <path d="M11.3289552,77.8483335 C9.92638753,80.4095456 10.9484265,85.294524 14.3950721,92.5032686 C14.3950721,92.5032686 -8.96449873,118.010844 4.19204185,121.501355 C17.3485824,124.991866 21.9130938,118.816336 30.2366178,123.64936 C30.2366178,123.64936 34.2641289,117.473841 33.7271285,113.714831 C33.7271285,113.714831 22.1815957,111.566823 16.0060765,111.835325 C20.8529714,104.923473 43.0463086,95.8031078 32.9216263,80.689234 C22.796944,65.5753601 26.7461004,69.9492034 26.7461004,69.9492034 C19.1824454,70.2584805 14.043397,72.8915238 11.3289552,77.8483335 Z" id="Path" fill="#B5B5BF"></path>
                <path d="M21.3760901,36.1181139 C21.3760901,36.1181139 22.1815957,44.4416378 18.6910716,45.5156419 C15.2005475,46.589646 32.3846092,46.3211441 32.3846092,46.3211441 C32.3846092,46.3211441 28.3570981,43.9046375 30.2366044,38.8031224 C32.1161107,33.7016072 21.3760901,36.1181139 21.3760901,36.1181139 Z" id="Path" fill="#A0616A"></path>
                <path d="M21.3760901,36.1181139 C21.3760901,36.1181139 22.1815957,44.4416378 18.6910716,45.5156419 C15.2005475,46.589646 32.3846092,46.3211441 32.3846092,46.3211441 C32.3846092,46.3211441 28.3570981,43.9046375 30.2366044,38.8031224 C32.1161107,33.7016072 21.3760901,36.1181139 21.3760901,36.1181139 Z" id="Path" fill="#000000" opacity="0.1"></path>
                <path d="M39.0408117,51.0065484 C26.8889791,59.3130308 33.1817188,76.1457407 32.6531177,77.4672352 C32.1161174,78.8097277 28.4006977,77.1936018 25.2076778,77.1936018 C22.0146579,77.1936018 13.5109954,77.8759085 10.8259903,81.3664158 C8.14098515,84.8569232 8.97791631,78.7324126 10.8259903,72.1140478 C12.6740642,65.4956831 10.6346355,61.2094299 9.81640116,55.2227465 C8.99816684,49.2360631 11.136438,47.057794 11.9785655,46.0526322 C12.8206929,45.0474704 17.844356,43.3825758 19.4553604,43.6510777 C19.7942065,43.7075522 20.29249,44.0814444 20.3243397,44.1094584 C20.1793889,44.7734115 19.2280854,46.0790897 19.2280854,46.0790897 C19.2280854,46.0790897 23.5240983,44.9786315 24.3296005,44.4416278 C25.1345382,43.9050004 33.9070857,45.0134535 38.4055802,41.5894751 C41.9769796,38.783317 47.3277466,34.6552509 48.8805595,33.8684904 C51.2756676,32.654966 53.9671547,37.4918337 53.9671547,37.4918337 C53.9671547,37.4918337 51.821127,40.3851378 49.0063835,43.9784747 C46.9227622,46.6384519 41.643027,49.6312637 39.0408117,51.0065484 Z" id="Combined-Shape" fill="url(#linearGradient-6)"></path>
                <circle id="Oval" fill="#A0616A" cx="27.5516093" cy="33.4330953" r="8.32352396"></circle>
                <path d="M20.1883495,31.0218842 C21.6107025,29.8420114 23.4271389,29.2446229 25.2721591,29.3499241 C28.4627504,29.5462616 31.2713685,31.8198123 34.4671983,31.8908523 C34.3392441,31.199864 34.4355379,30.4860661 34.7420192,29.8536847 C34.989849,29.3458064 35.3809738,28.8536906 35.3283607,28.2910314 C35.2407134,27.8444778 34.9961828,27.444021 34.6389811,27.1620652 C32.791691,25.4104203 30.2375843,24.5076386 27.6942868,24.3964289 C25.9891339,24.3218652 22.7346135,24.3622697 21.4121488,25.6534176 C20.2807126,26.7580674 20.4122621,29.5899716 20.1883495,31.0218842 Z" id="Path" fill="#2F2E41"></path>
            </g>
            <g id="Logo" transform="translate(95.154867, 0.000000)" fill="url(#linearGradient-1)">
                <path d="M32.2161956,1.42108547e-14 C50.0087092,1.0942423e-14 64.4323913,14.4236821 64.4323913,32.2161956 C64.4323913,50.0087092 50.0087092,64.4323913 32.2161956,64.4323913 C14.4236821,64.4323913 1.63898092e-14,50.0087092 1.42108547e-14,32.2161956 C1.20319002e-14,14.4236821 14.4236821,1.74792864e-14 32.2161956,1.42108547e-14 Z M33.4952234,19.0111906 L19.0649199,19.0111906 L16.1080978,23.6418475 C30.4590427,23.6418475 38.6595891,23.6418475 40.7097369,23.6418475 C43.7849585,23.6418475 43.222663,31.1058975 39.9002864,31.1058975 C37.6853687,31.1058975 33.7779197,31.1058975 28.1779394,31.1058975 L28.8115679,26.2869524 L23.2999637,26.2869524 L19.0649199,48.3242935 L25.2676343,48.3242935 L27.1781554,35.8755031 L31.5678734,35.8755031 L31.2497098,38.6594348 L33.5048435,38.6594348 L33.8230071,35.8755031 L36.4003027,35.8755031 L36.0821391,38.6594348 L38.3372728,38.6594348 L38.6554364,35.8755031 L41.4532368,35.8755031 C50.3877973,35.8755031 50.3877973,19.0111906 42.7394328,19.0111906 L40.5827864,19.0111906 L40.9145685,16.1080978 L38.6594348,16.1080978 L38.3276527,19.0111906 L35.7503571,19.0111906 L36.0821391,16.1080978 L33.8270054,16.1080978 L33.4952234,19.0111906 Z" id="Combined-Shape"></path>
            </g>
            <g id="Flowers" transform="translate(154.400011, 123.899516)">
                <g id="Back" transform="translate(8.101331, 17.380801)">
                    <path d="M2.4198161,73.6936039 C24.4105227,29.1639246 43.9890375,51.4939817 55.5213264,12.3958019" id="Path-3" stroke="#B5B5BF" stroke-width="1.01769912"></path>
                    <path d="M19.3692113,34.4943834 C18.2196068,31.7051913 19.548755,28.5121657 22.337947,27.362561 C25.1271391,26.2129563 28.3201647,27.5421044 29.4697696,30.3312963 C30.618337,33.1211307 28.9007778,43.2915141 28.9007778,43.2915141 C28.9007778,43.2915141 20.5227934,37.2837791 19.3692113,34.4943834 Z" id="Path" fill="url(#linearGradient-7)" fill-rule="nonzero"></path>
                    <path d="M65.5450214,9.61696391 C63.7363016,12.0337854 54.1171672,15.7539099 54.1171672,15.7539099 C54.1171672,15.7539099 54.9920727,5.47834569 56.8015799,3.06649602 C58.6104417,0.652061413 62.0340999,0.161147609 64.4485345,1.97000934 C66.8629692,3.77887108 67.353883,7.20252923 65.5450214,9.61696391 L65.5450214,9.61696391 Z" id="Path" fill="url(#linearGradient-8)" fill-rule="nonzero"></path>
                    <path d="M65.5432163,9.6172085 C63.7344965,12.03403 54.1153622,15.7541544 54.1153622,15.7541544 C54.1153622,15.7541544 54.9902676,5.47859028 56.7997749,3.06674061 C58.6086366,0.652306004 62.0322948,0.1613922 64.4467295,1.97025393 C66.8611641,3.77911567 67.352078,7.20277382 65.5432163,9.6172085 L65.5432163,9.6172085 Z" id="Path" fill="url(#linearGradient-8)" fill-rule="nonzero" opacity="0.05"></path>
                    <path d="M39.5012382,20.4922211 L39.5016769,20.4972357 C39.2387814,17.4923269 41.4616224,14.8432481 44.4665312,14.5803527 C47.47144,14.3174572 50.1205188,16.5402982 50.3834143,19.545207 C50.6462093,22.5489677 45.9623876,31.7358253 45.9623876,31.7358253 C45.9623876,31.7358253 39.7644719,23.5009964 39.5012382,20.4922211 Z" id="Path" fill="url(#linearGradient-9)" fill-rule="nonzero"></path>
                    <path d="M39.5012382,20.4922211 L39.5016769,20.4972357 C39.2387814,17.4923269 41.4616224,14.8432481 44.4665312,14.5803527 C47.47144,14.3174572 50.1205188,16.5402982 50.3834143,19.545207 C50.6462093,22.5489677 45.9623876,31.7358253 45.9623876,31.7358253 C45.9623876,31.7358253 39.7644719,23.5009964 39.5012382,20.4922211 Z" id="Path" fill="url(#linearGradient-9)" fill-rule="nonzero" opacity="0.05"></path>
                    <path d="M19.3692113,34.4943834 C18.2196068,31.7051913 19.548755,28.5121657 22.337947,27.362561 C25.1271391,26.2129563 28.3201647,27.5421044 29.4697696,30.3312963 C30.618337,33.1211307 28.9007778,43.2915141 28.9007778,43.2915141 C28.9007778,43.2915141 20.5227934,37.2837791 19.3692113,34.4943834 Z" id="Path" fill="url(#linearGradient-7)" fill-rule="nonzero" opacity="0.05"></path>
                    <path d="M62.6772724,27.7616854 C59.7800032,28.6063657 49.8735264,25.8045857 49.8735264,25.8045857 C49.8735264,25.8045857 56.7511649,18.128658 59.6421033,17.2693726 C62.5389909,16.4256949 65.5713181,18.0901503 66.4149959,20.9870378 C67.2586737,23.8839253 65.5942184,26.9162526 62.697331,27.7599305 L62.6772724,27.7616854 Z" id="Path" fill="url(#linearGradient-10)" fill-rule="nonzero"></path>
                    <path d="M62.6772724,27.7616854 C59.7800032,28.6063657 49.8735264,25.8045857 49.8735264,25.8045857 C49.8735264,25.8045857 56.7511649,18.128658 59.6421033,17.2693726 C62.5389909,16.4256949 65.5713181,18.0901503 66.4149959,20.9870378 C67.2586737,23.8839253 65.5942184,26.9162526 62.697331,27.7599305 L62.6772724,27.7616854 Z" id="Path" fill="#000000" fill-rule="nonzero" opacity="0.05"></path>
                    <path d="M43.7470703,48.5449549 C40.8160331,47.7907857 33.6646407,40.3821675 33.6646407,40.3821675 C33.6646407,40.3821675 43.493834,37.2180525 46.4080725,37.9534794 C48.3386263,38.3933916 49.8798891,39.8437153 50.4362519,41.743984 C50.9926147,43.6442526 50.4769297,45.6968118 49.0884796,47.1084657 C47.7000294,48.5201196 45.6562982,49.0697494 43.7470703,48.5449549 L43.7470703,48.5449549 Z" id="Path" fill="url(#linearGradient-11)" fill-rule="nonzero"></path>
                    <path d="M43.7470703,48.5449549 C40.8160331,47.7907857 33.6646407,40.3821675 33.6646407,40.3821675 C33.6646407,40.3821675 43.493834,37.2180525 46.4080725,37.9534794 C48.3386263,38.3933916 49.8798891,39.8437153 50.4362519,41.743984 C50.9926147,43.6442526 50.4769297,45.6968118 49.0884796,47.1084657 C47.7000294,48.5201196 45.6562982,49.0697494 43.7470703,48.5449549 L43.7470703,48.5449549 Z" id="Path" fill="#000000" fill-rule="nonzero" opacity="0.05"></path>
                    <path d="M25.7855405,61.0944444 C22.7780245,60.8522671 14.4728159,54.7522638 14.4728159,54.7522638 C14.4728159,54.7522638 23.6097591,49.9711139 26.6163976,50.203262 C28.5754213,50.3343364 30.3133397,51.5068443 31.1683594,53.2742989 C32.0233791,55.0417535 31.8639097,57.1321374 30.7506766,58.7494396 C29.6374435,60.3667418 27.741777,61.262054 25.7855405,61.0944444 L25.7855405,61.0944444 Z" id="Path" fill="url(#linearGradient-12)" fill-rule="nonzero"></path>
                    <path d="M25.7855405,61.0944444 C22.7780245,60.8522671 14.4728159,54.7522638 14.4728159,54.7522638 C14.4728159,54.7522638 23.6097591,49.9711139 26.6163976,50.203262 C28.5754213,50.3343364 30.3133397,51.5068443 31.1683594,53.2742989 C32.0233791,55.0417535 31.8639097,57.1321374 30.7506766,58.7494396 C29.6374435,60.3667418 27.741777,61.262054 25.7855405,61.0944444 L25.7855405,61.0944444 Z" id="Path" fill="#000000" fill-rule="nonzero" opacity="0.05"></path>
                    <path d="M0.979932473,52.0881965 C0.319146254,49.1446105 2.16972101,46.2226894 5.11330702,45.5619029 C8.05689302,44.9011164 10.9788143,46.7516909 11.639601,49.6952768 C12.3013725,52.6388666 8.88812417,62.3714545 8.88812417,62.3714545 C8.88812417,62.3714545 1.64170391,55.0317863 0.979932473,52.0881965 L0.979932473,52.0881965 Z" id="Path" fill="url(#linearGradient-13)" fill-rule="nonzero"></path>
                    <path d="M0.979932473,52.0881965 C0.319146254,49.1446105 2.16972101,46.2226894 5.11330702,45.5619029 C8.05689302,44.9011164 10.9788143,46.7516909 11.639601,49.6952768 C12.3013725,52.6388666 8.88812417,62.3714545 8.88812417,62.3714545 C8.88812417,62.3714545 1.64170391,55.0317863 0.979932473,52.0881965 L0.979932473,52.0881965 Z" id="Path" fill="#000000" fill-rule="nonzero" opacity="0.05"></path>
                </g>
                <g id="Front">
                    <path d="M10.5211474,91.0744046 C14.1973038,42.3481758 41.0504695,50.3957608 34.6888619,12.371304" id="Path-3" stroke="#B5B5BF" stroke-width="1.01769912" stroke-linecap="round" stroke-linejoin="round"></path>
                    <path d="M43.0789566,6.82078567 C42.4030979,9.76150034 35.1194594,17.0615272 35.1194594,17.0615272 C35.1194594,17.0615272 31.7604086,7.30875658 32.4370547,4.37301372 C32.8326217,2.42851411 34.2517184,0.851541012 36.1438763,0.2538033 C38.0360343,-0.343934413 40.1035284,0.131615374 41.5443765,1.4959866 C42.9852246,2.86035782 43.5727137,4.89887104 43.0789566,6.82078567 L43.0789566,6.82078567 Z" id="Path" fill="url(#linearGradient-14)" fill-rule="nonzero"></path>
                    <path d="M47.8584577,24.6712625 C45.5526506,26.6162825 35.3418638,28.0755476 35.3418638,28.0755476 C35.3418638,28.0755476 38.5256941,18.261971 40.8164573,16.3182671 C42.3085763,15.0603349 44.3584498,14.6939936 46.1939105,15.3572403 C48.0293713,16.0204871 49.3715689,17.6125591 49.7149107,19.533738 C50.0582525,21.454917 49.3505766,23.4133303 47.8584577,24.6712625 Z" id="Path" fill="url(#linearGradient-15)" fill-rule="nonzero"></path>
                    <path d="M39.3472674,50.0690105 C36.3604283,50.5829755 26.8231652,46.6877617 26.8231652,46.6877617 C26.8231652,46.6877617 34.5142914,39.8198866 37.4655895,39.303978 C40.4387556,38.7899062 43.2657206,40.783396 43.7797926,43.7565621 C44.2938645,46.7297282 42.300375,49.5566932 39.3272089,50.0707654 L39.3472674,50.0690105 Z" id="Path" fill="url(#linearGradient-16)" fill-rule="nonzero"></path>
                    <path d="M27.1079323,71.1536688 C24.2652579,72.1603219 14.1973038,69.9386064 14.1973038,69.9386064 C14.1973038,69.9386064 20.6105302,61.8636977 23.4532046,60.8570446 C25.3029017,60.1583959 27.385761,60.5140172 28.8988583,61.7868197 C30.4119555,63.0596221 31.1189807,65.050824 30.7473817,66.9928341 C30.3757827,68.9348443 28.9835945,70.5243667 27.1074936,71.1486542 L27.1079323,71.1536688 Z" id="Path" fill="url(#linearGradient-17)" fill-rule="nonzero"></path>
                    <path d="M23.9259838,25.7894434 L23.9268613,25.7994726 C22.5409272,23.1667576 23.5171983,19.9090742 26.1226271,18.4725012 C28.728056,17.0359282 32.0040047,17.9490364 33.4906796,20.5262052 C34.9496537,23.1676103 34.390157,33.4640618 34.390157,33.4640618 C34.390157,33.4640618 25.3799433,28.4312872 23.9259838,25.7894434 Z" id="Path" fill="url(#linearGradient-18)" fill-rule="nonzero"></path>
                    <path d="M11.184234,47.9856749 C9.7343437,46.646802 9.11951384,44.6298911 9.57597752,42.7098902 C10.0324412,40.7898893 11.4891898,39.2654783 13.3865039,38.7223744 C15.283818,38.1792705 17.3265468,38.7019602 18.7298224,40.0896129 C20.9130394,42.1724601 23.4599781,52.1668156 23.4599781,52.1668156 C23.4599781,52.1668156 13.3624364,50.0689609 11.184234,47.9856749 L11.184234,47.9856749 Z" id="Path" fill="url(#linearGradient-19)" fill-rule="nonzero"></path>
                    <path d="M1.08010917,71.2913585 L1.07509455,71.2917972 C-0.0874144105,69.724535 -0.325492518,67.6561338 0.45054195,65.8657405 C1.22657642,64.0753471 2.89882536,62.8349649 4.83736875,62.6118338 C6.77591214,62.3887027 8.6862391,63.2167217 9.84874793,64.783984 C11.6525424,67.20826 12.4758274,77.4847939 12.4758274,77.4847939 C12.4758274,77.4847939 2.87888898,73.7160732 1.08010917,71.2913585 Z" id="Path" fill="url(#linearGradient-20)" fill-rule="nonzero"></path>
                </g>
            </g>
        </g>
    </g>
</svg>