<?xml version="1.0" encoding="UTF-8"?>
<svg width="230px" height="183px" viewBox="0 0 230 183" version="1.1" xmlns="http://www.w3.org/2000/svg" xmlns:xlink="http://www.w3.org/1999/xlink">
    <!-- Generator: Sketch 55.2 (78181) - https://sketchapp.com -->
    <title>Illustration/Backup</title>
    <desc>Created with Sketch.</desc>
    <defs>
        <linearGradient x1="100%" y1="32.9673031%" x2="0%" y2="67.0326969%" id="linearGradient-1">
            <stop stop-color="#FCC642" offset="0%"></stop>
            <stop stop-color="#F7941F" offset="100%"></stop>
        </linearGradient>
        <linearGradient x1="100%" y1="0%" x2="0%" y2="100%" id="linearGradient-2">
            <stop stop-color="#FCC642" offset="0%"></stop>
            <stop stop-color="#F7941F" offset="100%"></stop>
        </linearGradient>
        <linearGradient x1="50%" y1="0%" x2="50%" y2="50%" id="linearGradient-3">
            <stop stop-color="#FCC642" offset="0%"></stop>
            <stop stop-color="#F7941F" offset="100%"></stop>
        </linearGradient>
        <linearGradient x1="100%" y1="24.4177574%" x2="0%" y2="75.5822426%" id="linearGradient-4">
            <stop stop-color="#FCC642" offset="0%"></stop>
            <stop stop-color="#F7941F" offset="100%"></stop>
        </linearGradient>
        <path d="M169.091615,10.2725828 L169.091615,112.142117 C169.091615,117.007131 165.145654,120.95014 160.280639,120.95014 L8.80507101,120.95014 C3.94168697,120.94851 -2.55795385e-13,117.005501 -2.55795385e-13,112.142117 L-2.55795385e-13,1.70530257e-13 C4.34052796,1.60924336 4.34052796,1.60924336 8.80507101,1.47637006 L160.280639,1.47637006 C165.141047,1.47636323 169.083471,5.41218148 169.091615,10.2725828 Z" id="path-5"></path>
        <linearGradient x1="77.5895706%" y1="10.3580578%" x2="19.1807079%" y2="85.2767748%" id="linearGradient-7">
            <stop stop-color="#FCC642" offset="0%"></stop>
            <stop stop-color="#F7941F" offset="100%"></stop>
        </linearGradient>
        <linearGradient x1="100%" y1="48.3126006%" x2="0%" y2="51.6873994%" id="linearGradient-8">
            <stop stop-color="#FCC642" offset="0%"></stop>
            <stop stop-color="#F7941F" offset="100%"></stop>
        </linearGradient>
        <linearGradient x1="100%" y1="22.2844081%" x2="0%" y2="77.7155919%" id="linearGradient-9">
            <stop stop-color="#FCC642" offset="0%"></stop>
            <stop stop-color="#F7941F" offset="100%"></stop>
        </linearGradient>
        <linearGradient x1="100%" y1="23.4683303%" x2="0%" y2="76.5316697%" id="linearGradient-10">
            <stop stop-color="#FCC642" offset="0%"></stop>
            <stop stop-color="#F7941F" offset="100%"></stop>
        </linearGradient>
        <linearGradient x1="57.3362917%" y1="6.4768435%" x2="46.1662267%" y2="50%" id="linearGradient-11">
            <stop stop-color="#FCC642" offset="0%"></stop>
            <stop stop-color="#F7941F" offset="100%"></stop>
        </linearGradient>
        <linearGradient x1="36.847298%" y1="30.1248773%" x2="63.6504629%" y2="78.3815197%" id="linearGradient-12">
            <stop stop-color="#FCC642" offset="0%"></stop>
            <stop stop-color="#F7941F" offset="100%"></stop>
        </linearGradient>
        <linearGradient x1="57.3661483%" y1="34.6977951%" x2="36.6037195%" y2="86.80466%" id="linearGradient-13">
            <stop stop-color="#FCC642" offset="0%"></stop>
            <stop stop-color="#F7941F" offset="100%"></stop>
        </linearGradient>
        <linearGradient x1="92.1057538%" y1="21.5759169%" x2="17.1366541%" y2="83.0142177%" id="linearGradient-14">
            <stop stop-color="#FCC642" offset="0%"></stop>
            <stop stop-color="#F7941F" offset="100%"></stop>
        </linearGradient>
        <linearGradient x1="92.1057538%" y1="21.5753305%" x2="28.2562539%" y2="80.0549084%" id="linearGradient-15">
            <stop stop-color="#FCC642" offset="0%"></stop>
            <stop stop-color="#F7941F" offset="100%"></stop>
        </linearGradient>
        <linearGradient x1="100%" y1="49.8335159%" x2="0%" y2="50.1664841%" id="linearGradient-16">
            <stop stop-color="#FCC642" offset="0%"></stop>
            <stop stop-color="#F7941F" offset="100%"></stop>
        </linearGradient>
        <linearGradient x1="100%" y1="41.5905936%" x2="0%" y2="58.4094064%" id="linearGradient-17">
            <stop stop-color="#FCC642" offset="0%"></stop>
            <stop stop-color="#F7941F" offset="100%"></stop>
        </linearGradient>
    </defs>
    <g id="Illustration/Backup" stroke="none" stroke-width="1" fill="none" fill-rule="evenodd">
        <g>
            <path d="M215.881762,113.761992 C182.677244,167.773237 139.430042,96.6180683 83.9139902,109.16515 C28.3979387,121.712231 1.45655819,104.30092 0.0321294858,64.439943 C-1.39229922,24.5789656 44.6517803,-32.1491099 117.120807,22.9672839 C138.056813,38.8901845 173.048989,21.6775106 193.699716,29.5781409 C214.350442,37.4787713 249.73054,58.702778 215.881762,113.761992 Z" id="Path" fill="url(#linearGradient-1)" fill-rule="nonzero" opacity="0.25"></path>
            <circle id="Oval" fill="url(#linearGradient-2)" opacity="0.25" cx="15.4727273" cy="166.82226" r="11.7090909"></circle>
            <circle id="Oval-Copy" fill="url(#linearGradient-2)" opacity="0.25" cx="95.4841959" cy="163.338704" r="6.69090909"></circle>
            <circle id="Oval-Copy-2" fill="url(#linearGradient-2)" opacity="0.25" cx="135.490909" cy="8.44727273" r="8.36363636"></circle>
            <g id="Group-4" transform="translate(24.784935, 21.613012)">
                <path d="M165.191045,13.8453984 L165.191045,10.1780952 C165.191045,4.55641082 160.631682,0 155.009998,0 L10.1810479,0 C4.55936332,0 -1.13686838e-13,4.55641082 -1.13686838e-13,10.1780952 L-1.13686838e-13,16.93987 L165.191045,13.8453984 Z" id="Path" fill="url(#linearGradient-3)" fill-rule="nonzero"></path>
                <g id="Group-3" transform="translate(0.008858, 8.468459)">
                    <mask id="mask-6" fill="white">
                        <use xlink:href="#path-5"></use>
                    </mask>
                    <use id="Path" fill="url(#linearGradient-4)" fill-rule="nonzero" xlink:href="#path-5"></use>
                </g>
                <path d="M168.669373,56.4032416 L168.669373,88.9808232 L137.075054,88.9808232 C128.164527,88.8608508 121.004101,81.6033673 121.004101,72.6920324 C121.004101,63.7806975 128.164527,56.523214 137.075054,56.4032416 L168.669373,56.4032416 Z" id="Path" fill="#000000" fill-rule="nonzero" opacity="0.1"></path>
                <path d="M169.100473,55.535136 L169.100473,88.1186231 L137.506154,88.1186231 C128.595627,87.9986507 121.435201,80.7411672 121.435201,71.8298323 C121.435201,62.9184974 128.595627,55.6610139 137.506154,55.5410415 L169.100473,55.535136 Z" id="Path" fill="#FFFFFF" fill-rule="nonzero"></path>
                <circle id="Oval" fill="#000000" fill-rule="nonzero" opacity="0.1" cx="139.02091" cy="72.6935088" r="6.35134398"></circle>
                <circle id="Oval" fill="url(#linearGradient-7)" fill-rule="nonzero" cx="139.45201" cy="71.8313087" r="6.35134398"></circle>
            </g>
            <ellipse id="Oval" fill="url(#linearGradient-8)" fill-rule="nonzero" opacity="0.25" cx="190.80466" cy="176.228093" rx="32.0966951" ry="5.89636364"></ellipse>
            <g id="Group-7" transform="translate(87.120560, 57.291955)" fill-rule="nonzero">
                <path d="M38.8408355,20.4632271 L35.5066998,20.4632271 L35.5066998,13.9868838 C35.5066998,6.67885199 29.6799593,0.603589214 22.3719276,0.49286146 C18.8126367,0.455466061 15.3856599,1.84036531 12.851687,4.34015151 C10.3177141,6.83993772 8.8863962,10.2477883 8.87544465,13.8072587 L8.87544465,20.4632271 L5.54869079,20.4632271 C2.48815909,20.4726837 0.00945657699,22.9513862 0,26.0119179 L0,52.6407124 C0.00945657699,55.7012441 2.48815909,58.1799466 5.54869079,58.1894032 L38.8408355,58.1894032 C41.9009653,58.1799398 44.3789597,55.7008461 44.3870657,52.6407124 L44.3870657,26.0119179 C44.3789597,22.9517842 41.9009653,20.4726905 38.8408355,20.4632271 Z M24.1386504,37.773666 L24.1386504,47.3110165 C24.1453257,48.3589671 23.3383706,49.2326305 22.2931878,49.3090373 C21.7618254,49.3339197 21.2434322,49.1402368 20.8585626,48.7730303 C20.4736931,48.4058239 20.2558874,47.8970948 20.2557972,47.3651501 L20.2557972,37.7687447 C18.4021574,36.8647608 17.4177315,34.8010365 17.8816105,32.791563 C18.3454894,30.7820895 20.1349029,29.358695 22.1972238,29.358695 C24.2595446,29.358695 26.0489581,30.7820895 26.5128371,32.791563 C26.9767161,34.8010365 25.9922901,36.8647608 24.1386504,37.7687447 L24.1386504,37.773666 Z M31.6287678,20.4632271 L12.7582979,20.4632271 L12.7582979,13.8072587 C12.7582979,8.5983608 16.980944,4.37571471 22.1898419,4.37571471 C27.3987399,4.37571471 31.621386,8.5983608 31.621386,13.8072587 L31.6287678,20.4632271 Z" id="Shape" fill="#000000" opacity="0.1"></path>
                <path d="M38.8408355,19.9711037 L35.5066998,19.9711037 L35.5066998,13.4947604 C35.5066998,6.18672864 29.6799593,0.111465862 22.3719276,0.000738108203 C18.8126367,-0.0366572904 15.3856599,1.34824195 12.851687,3.84802816 C10.3177141,6.34781437 8.8863962,9.75566495 8.87544465,13.3151354 L8.87544465,19.9711037 L5.54869079,19.9711037 C2.48815909,19.9805603 0.00945657699,22.4592628 0,25.5197945 L0,52.1485891 C0.00945657699,55.2091208 2.48815909,57.6878233 5.54869079,57.6972799 L38.8408355,57.6972799 C41.9009653,57.6878165 44.3789597,55.2087227 44.3870657,52.1485891 L44.3870657,25.5197945 C44.3789597,22.4596609 41.9009653,19.9805671 38.8408355,19.9711037 L38.8408355,19.9711037 Z M24.1386504,37.2815426 L24.1386504,46.8188932 C24.1453257,47.8668437 23.3383706,48.7405071 22.2931878,48.816914 C21.7618254,48.8417964 21.2434322,48.6481135 20.8585626,48.280907 C20.4736931,47.9137005 20.2558874,47.4049715 20.2557972,46.8730267 L20.2557972,37.2766214 C18.4021574,36.3726374 17.4177315,34.3089131 17.8816105,32.2994396 C18.3454894,30.2899662 20.1349029,28.8665717 22.1972238,28.8665717 C24.2595446,28.8665717 26.0489581,30.2899662 26.5128371,32.2994396 C26.9767161,34.3089131 25.9922901,36.3726374 24.1386504,37.2766214 L24.1386504,37.2815426 Z M31.6287678,19.9711037 L12.7582979,19.9711037 L12.7582979,13.3151354 C12.7582979,8.10623745 16.980944,3.88359135 22.1898419,3.88359135 C27.3987399,3.88359135 31.621386,8.10623745 31.621386,13.3151354 L31.6287678,19.9711037 Z" id="Shape" fill="#FFFFFF"></path>
            </g>
            <path d="M197.220718,81.7996983 L197.220718,84.3505377 L191.987806,86.9813471 C191.987806,86.9813471 186.791804,83.8379092 188.073375,82.5870957 C188.893581,81.7955973 188.735691,79.6220525 188.514236,78.1272278 L188.514236,78.1272278 C188.385053,77.2578099 188.235366,76.6201 188.235366,76.6201 C188.235366,76.6201 197.569305,73.9544319 196.158552,75.9782892 C195.686933,76.6549588 195.650024,77.5305282 195.807914,78.3978957 C196.127794,80.1182769 197.220718,81.7996983 197.220718,81.7996983 Z" id="Path" fill="#A0616A" fill-rule="nonzero"></path>
            <path d="M182.885575,106.744201 L182.210956,115.052883 C182.210956,115.052883 181.200052,114.136304 179.891824,112.942904 C177.466066,110.7304 174.412269,108.626573 174.062213,107.482386 C173.712157,106.338199 174.677367,99.815514 174.736832,97.9208391 C174.792896,96.5759659 176.071717,92.1958041 176.217303,91.4637706 C176.266516,91.2361636 176.297273,91.0885266 176.297273,91.0885266 L177.429157,90.6333125 C177.429157,90.6333125 182.145339,95.8949313 182.145339,95.9913055 C182.145339,96.0876796 181.823408,100.129243 181.823408,100.129243 L181.489175,100.420416 L181.343588,100.545497 C181.343588,100.545497 181.118032,102.31099 180.958092,102.840022 C180.798151,103.369055 180.970395,104.287685 180.988849,104.38611 C180.973764,104.662385 180.934657,104.936823 180.87197,105.206315 C180.845212,105.309956 180.808828,105.41087 180.763293,105.507741 C180.705504,105.687242 180.717212,105.881898 180.796101,106.053178 C180.887224,106.290913 181.005575,106.517294 181.148789,106.727797 L182.885575,106.744201 Z" id="Path" fill="#6B6C71" fill-rule="nonzero"></path>
            <path d="M210.935686,107.40135 C210.5002,108.797713 206.48699,112.173962 204.307294,114.156809 L203.318946,115.052883 L202.650479,106.744201 L204.383163,106.744201 C204.383163,106.744201 204.961408,105.909642 204.76866,105.524145 C204.634295,105.164729 204.558823,104.785981 204.545154,104.402514 C204.545154,104.402514 204.735852,103.377257 204.575911,102.846174 C204.415971,102.315091 204.190415,100.551649 204.190415,100.551649 L203.97101,100.363001 L203.710595,100.135394 C203.710595,100.135394 203.388664,96.0938312 203.388664,95.997457 C203.388664,95.9010829 208.104846,90.639464 208.104846,90.639464 L209.228528,91.0885266 C209.228528,91.0885266 209.253134,91.2095069 209.294144,91.4022552 C209.445882,92.1014805 209.808823,93.7562453 209.933904,94.0084585 C210.450228,95.2515343 211.371172,106.004987 210.935686,107.40135 Z" id="Path" fill="#6B6C71" fill-rule="nonzero"></path>
            <path d="M211.488194,178.007763 C211.186768,178.606513 209.070638,178.212814 208.633879,178.180006 C208.197119,178.147198 205.113146,176.594959 205.070085,176.232018 C205.027025,175.869077 203.958707,175.120639 203.659332,175.120639 C203.359957,175.120639 201.906142,173.96415 201.77696,173.793957 C201.744223,173.709063 201.729557,173.618273 201.733899,173.52739 C201.688788,172.824064 201.77696,171.01346 201.77696,171.01346 L207.979765,171.355896 L210.99402,175.889582 C211.248071,176.378707 211.431701,176.90129 211.539457,177.441821 C211.576035,177.63153 211.558264,177.827714 211.488194,178.007763 L211.488194,178.007763 Z" id="Path" fill="url(#linearGradient-9)" fill-rule="nonzero"></path>
            <path d="M211.488194,178.007763 C211.186768,178.606513 209.070638,178.212814 208.633879,178.180006 C208.197119,178.147198 205.113146,176.594959 205.070085,176.232018 C205.027025,175.869077 203.958707,175.120639 203.659332,175.120639 C203.359957,175.120639 201.906142,173.96415 201.77696,173.793957 C201.744223,173.709063 201.729557,173.618273 201.733899,173.52739 L203.743403,174.798709 C203.743403,174.798709 205.027025,175.618914 205.36946,176.104886 C205.711896,176.590858 208.410373,177.601761 208.633879,177.622266 C208.79997,177.638671 210.571614,177.298285 211.539457,177.441821 C211.576035,177.63153 211.558264,177.827714 211.488194,178.007763 L211.488194,178.007763 Z" id="Path" fill="#000000" fill-rule="nonzero" opacity="0.1"></path>
            <path d="M182.165844,174.265575 C182.165844,174.265575 181.288224,175.356449 180.11533,175.44052 C179.472555,175.44535 178.946187,175.952791 178.91783,176.594959 C178.91783,176.594959 179.122882,177.259325 176.287021,178.180006 C174.574842,178.731595 173.498322,178.557301 172.870865,178.180006 C172.534129,177.994202 172.279995,177.68807 172.159336,177.322891 C171.966588,176.64007 175.751837,171.442017 175.751837,171.442017 L179.1967,171.236966 L181.657317,172.348345 L182.034611,173.757048 L182.165844,174.265575 Z" id="Path" fill="url(#linearGradient-10)" fill-rule="nonzero"></path>
            <path d="M182.165844,174.265575 C182.165844,174.265575 181.288224,175.356449 180.11533,175.44052 C179.472555,175.44535 178.946187,175.952791 178.91783,176.594959 C178.91783,176.594959 179.122882,177.259325 176.287021,178.180006 C174.574842,178.731595 173.498322,178.557301 172.870865,178.180006 C174.484619,178.011864 178.050463,176.992759 178.407252,176.64007 C178.83581,176.211513 179.370994,175.034518 179.733935,175.014013 C179.986148,174.997609 181.267719,174.226615 182.036662,173.748846 L182.165844,174.265575 Z" id="Path"></path>
            <path d="M182.165844,174.265575 C182.165844,174.265575 181.288224,175.356449 180.11533,175.44052 C179.472555,175.44535 178.946187,175.952791 178.91783,176.594959 C178.91783,176.594959 179.122882,177.259325 176.287021,178.180006 C174.574842,178.731595 173.498322,178.557301 172.870865,178.180006 C174.484619,178.011864 178.050463,176.992759 178.407252,176.64007 C178.83581,176.211513 179.370994,175.034518 179.733935,175.014013 C179.986148,174.997609 181.267719,174.226615 182.036662,173.748846 L182.165844,174.265575 Z" id="Path" fill="#000000" fill-rule="nonzero" opacity="0.1"></path>
            <path d="M208.578515,169.49608 C208.193018,170.394205 208.578515,172.233516 208.578515,172.233516 C208.578515,172.233516 202.837076,172.532891 201.434524,171.591705 C200.031972,170.650519 199.959524,165.259718 199.959524,165.259718 C199.959524,165.259718 199.177594,158.90039 197.613736,146.181736 L196.289104,139.980982 C194.155656,134.961323 192.958383,131.981243 192.697284,131.040741 C192.305636,129.629987 191.891432,130.911558 191.891432,130.911558 C191.850422,132.281302 188.684428,138.441046 188.684428,138.441046 C188.684428,138.441046 188.21281,142.162728 187.700182,143.48736 C187.187553,144.811992 186.629813,149.433851 186.629813,149.433851 C186.629813,149.433851 183.375648,170.09483 183.375648,170.09483 C183.375648,170.09483 183.631962,171.975151 182.647715,172.276577 C181.663468,172.578002 181.82751,173.217762 181.82751,173.217762 C181.82751,173.217762 176.352637,174.115888 175.454512,171.718837 C174.556387,169.321786 175.796948,168.684076 175.864615,168.511833 C175.932282,168.33959 177.911485,156.212151 178.068917,154.09672 C178.22635,151.981289 180.199401,127.360068 180.248614,126.144113 C180.285523,125.215231 180.293725,124.446288 180.293725,124.446288 L185.083726,122.650038 L191.235268,120.683595 L196.410765,123.164717 L203.983313,124.618531 L204.077637,125.924708 L205.523249,145.87826 L206.343454,153.405697 C206.343454,153.405697 207.198519,162.432059 207.198519,162.432059 C207.198519,162.432059 207.198519,163.740287 207.198519,166.356743 C207.198519,166.356743 208.964011,168.597954 208.578515,169.49608 Z" id="Path" fill="#6B6C71" fill-rule="nonzero"></path>
            <path d="M208.578515,169.49608 C208.193018,170.394205 208.578515,172.233516 208.578515,172.233516 C208.578515,172.233516 202.837076,172.532891 201.434524,171.591705 C200.031972,170.650519 199.959524,165.259718 199.959524,165.259718 C199.959524,165.259718 199.177594,158.90039 197.613736,146.181736 L196.289104,139.980982 C194.155656,134.961323 192.958383,131.981243 192.697284,131.040741 C192.305636,129.629987 191.891432,130.911558 191.891432,130.911558 C191.850422,132.281302 188.684428,138.441046 188.684428,138.441046 C188.684428,138.441046 188.21281,142.162728 187.700182,143.48736 C187.187553,144.811992 186.629813,149.433851 186.629813,149.433851 C186.629813,149.433851 183.375648,170.09483 183.375648,170.09483 C183.375648,170.09483 183.631962,171.975151 182.647715,172.276577 C181.663468,172.578002 181.82751,173.217762 181.82751,173.217762 C181.82751,173.217762 176.352637,174.115888 175.454512,171.718837 C174.556387,169.321786 175.796948,168.684076 175.864615,168.511833 C175.932282,168.33959 177.911485,156.212151 178.068917,154.09672 C178.22635,151.981289 180.199401,127.360068 180.248614,126.144113 C180.285523,125.215231 180.293725,124.446288 180.293725,124.446288 L185.083726,122.650038 L191.235268,120.683595 L196.410765,123.164717 L203.983313,124.618531 L204.077637,125.924708 L205.523249,145.87826 L206.343454,153.405697 C206.343454,153.405697 207.198519,162.432059 207.198519,162.432059 C207.198519,162.432059 207.198519,163.740287 207.198519,166.356743 C207.198519,166.356743 208.964011,168.597954 208.578515,169.49608 Z" id="Path" fill-opacity="0.1" fill="#000000" fill-rule="nonzero"></path>
            <path d="M196.162653,75.9782892 C195.691034,76.6549588 195.654125,77.5305282 195.812015,78.3978957 C193.59699,79.96055 190.610481,79.8488813 188.518337,78.1251773 L188.518337,78.1251773 C188.389154,77.2557594 188.239467,76.6180495 188.239467,76.6180495 C188.239467,76.6180495 197.573406,73.9564824 196.162653,75.9782892 Z" id="Path" fill="#000000" fill-rule="nonzero" opacity="0.1"></path>
            <path d="M198.344469,73.3618334 C198.344469,76.6799634 195.654524,79.3698393 192.336394,79.3698393 C189.018264,79.3698393 186.328388,76.6799634 186.328388,73.3618334 C186.328388,70.0437033 189.018264,67.3537581 192.336394,67.3537581 C193.932158,67.3461474 195.464784,67.9766655 196.593173,69.1050542 C197.721561,70.233443 198.352079,71.7660691 198.344469,73.3618334 L198.344469,73.3618334 Z" id="Path" fill="#A0616A" fill-rule="nonzero"></path>
            <polygon id="Path" fill="#000000" fill-rule="nonzero" opacity="0.1" points="199.595213 83.3457859 197.62672 118.399322 186.933289 116.154009 184.815108 102.101837 186.912784 83.2371086 188.49168 83.4401095 191.276278 83.7948484 194.034219 83.9650411 197.023869 83.6328578"></polygon>
            <polygon id="Path" fill="url(#linearGradient-11)" fill-rule="nonzero" points="199.595213 83.6021001 197.62672 118.655636 186.933289 116.410324 184.815108 102.358151 186.912784 83.4954734 188.49168 83.6964237 191.276278 84.0511627 194.034219 84.2213553 197.023869 83.8891721"></polygon>
            <path d="M190.80466,84.543286 L194.655525,84.6724684 L193.572854,86.1877982 C193.572854,86.1877982 193.648723,89.2492156 194.163402,90.1268355 C194.678081,91.0044555 194.526342,104.562454 194.526342,104.562454 L193.501086,106.508392 L191.747896,104.326645 L191.770452,86.4256578 L190.80466,84.543286 Z" id="Path" fill="#6B6C71" fill-rule="nonzero"></path>
            <path d="M190.80466,84.543286 L194.655525,84.6724684 L193.572854,86.1877982 C193.572854,86.1877982 193.648723,89.2492156 194.163402,90.1268355 C194.678081,91.0044555 194.526342,104.562454 194.526342,104.562454 L193.501086,106.508392 L191.747896,104.326645 L191.770452,86.4256578 L190.80466,84.543286 Z" id="Path" fill="#000000" fill-rule="nonzero" opacity="0.1"></path>
            <polygon id="Path" fill="#000000" fill-rule="nonzero" opacity="0.1" points="196.835221 80.5652889 193.242721 84.543286 195.295285 86.6819721 198.697088 83.366291"></polygon>
            <polygon id="Path" fill="url(#linearGradient-12)" fill-rule="nonzero" points="196.835221 80.3089747 193.242721 84.2869718 195.295285 86.4256578 198.697088 83.1099768"></polygon>
            <polygon id="Path" fill="#000000" fill-rule="nonzero" opacity="0.1" points="191.72534 84.3505377 188.087729 80.7149764 187.745293 82.6178534 189.414411 86.7885988"></polygon>
            <polygon id="Path" fill="url(#linearGradient-13)" fill-rule="nonzero" points="191.852472 84.0942235 188.216911 80.4586622 187.874475 82.3615392 189.543594 86.5322846"></polygon>
            <path d="M204.096091,125.93086 C202.350186,126.762698 200.480081,127.303644 198.559703,127.532311 C195.030769,127.981374 192.72189,123.490748 192.72189,123.490748 L191.374703,125.243938 C190.946145,127.105804 184.42346,127.575372 181.772146,126.869995 C181.222008,126.734105 180.704668,126.48938 180.250664,126.150265 C180.287574,125.221382 180.295776,124.452439 180.295776,124.452439 L185.085776,122.656189 L191.237318,120.689746 L196.412815,123.170868 L203.985363,124.624683 L204.096091,125.93086 Z" id="Path" fill="#000000" fill-rule="nonzero" opacity="0.1"></path>
            <path d="M199.595213,83.6041506 L197.62877,118.655636 L186.933289,116.410324 L184.811007,102.360202 L186.906633,83.4954734 L188.485528,83.7005248 C188.445167,84.3876941 188.367819,85.0721904 188.25382,85.7510387 C187.997506,86.9505894 189.580503,95.4622729 189.580503,95.4622729 C189.580503,95.4622729 192.588607,105.007415 193.941946,103.631521 C195.295285,102.255626 197.222768,94.9906547 197.222768,94.9906547 C198.528946,92.2962793 197.245324,84.7380848 197.14895,84.5863468 C197.081803,84.3628316 197.040523,84.1323504 197.025919,83.8994246 L199.595213,83.6041506 Z" id="Path" fill="#000000" fill-rule="nonzero" opacity="0.1"></path>
            <polygon id="Path" fill="#000000" fill-rule="nonzero" opacity="0.1" points="204.215021 110.728349 204.305244 114.16296 203.316896 115.059035 202.650479 106.744201 204.126849 106.744201"></polygon>
            <path d="M180.9909,104.392261 L180.9909,104.392261 C180.975815,104.668537 180.936707,104.942975 180.874021,105.212467 C180.874021,105.136598 180.874021,105.093537 180.857616,105.087385 C180.796101,105.070981 180.869919,104.757253 180.9909,104.392261 Z" id="Path" fill="#000000" fill-rule="nonzero" opacity="0.1"></path>
            <path d="M182.885575,106.744201 L182.210956,115.052883 C182.210956,115.052883 181.200052,114.136304 179.891824,112.942904 L180.047663,111.470635 C180.047663,111.470635 180.599252,107.853529 180.800202,106.069582 C180.891325,106.307317 181.009676,106.533699 181.15289,106.744201 L182.885575,106.744201 Z" id="Path" fill="#000000" fill-rule="nonzero" opacity="0.1"></path>
            <path d="M188.686479,80.5857941 C188.686479,80.5857941 188.046718,79.6446081 187.169098,81.4613635 C187.169098,81.4613635 184.880725,82.7880461 184.093327,82.9377336 C183.30593,83.0874211 180.504928,84.0716678 180.504928,84.0716678 C180.081903,84.3774599 179.573089,84.5418018 179.051114,84.5412355 C178.173494,84.5412355 177.725882,86.4848534 177.552188,87.5144807 C177.378494,88.5441081 176.311627,91.1069812 176.311627,91.1069812 L181.722933,97.309786 C181.722933,97.309786 181.722933,100.001748 181.722933,102.846174 C181.722933,105.6906 180.43316,111.468585 180.43316,111.468585 L179.129033,123.724507 C179.129033,123.724507 179.129033,125.775021 181.782398,126.482448 C184.435763,127.189875 190.962549,126.722358 191.382905,124.860492 L192.730092,123.105252 C192.730092,123.105252 195.038971,127.597928 198.567906,127.148865 C202.09684,126.699803 204.344203,125.416181 204.344203,125.416181 L203.958707,110.728349 L203.702392,100.141546 L209.212124,91.0885266 C209.212124,91.0885266 207.735753,88.2649689 207.864936,86.9874987 C207.994118,85.7100285 208.248382,84.7421859 205.104944,84.2931233 C205.104944,84.2931233 202.453629,83.8973741 200.891138,82.8167533 C199.962571,82.172015 198.947862,81.6612093 197.876882,81.2993729 C197.876882,81.2993729 196.995161,79.6589617 196.382058,80.2208026 C196.382058,80.2208026 196.997212,82.5399339 196.945949,82.8864707 C196.894686,83.2330076 197.042323,84.7996003 197.138697,84.9615909 C197.235071,85.1235815 198.518693,92.6715234 197.212516,95.3658987 C197.212516,95.3658987 195.295285,102.63087 193.931693,104.006765 C192.568102,105.382659 189.57025,95.8375169 189.57025,95.8375169 C189.57025,95.8375169 187.987253,87.323783 188.243568,86.1262828 C188.499882,84.9287826 188.686479,80.5857941 188.686479,80.5857941 Z" id="Path" fill="#6B6C71" fill-rule="nonzero"></path>
            <circle id="Oval" fill="#6B6C71" fill-rule="nonzero" cx="193.263226" cy="107.685387" r="1"></circle>
            <circle id="Oval" fill="#6B6C71" fill-rule="nonzero" cx="193.263226" cy="112.122699" r="1"></circle>
            <circle id="Oval" fill="#000000" fill-rule="nonzero" opacity="0.1" cx="193.263226" cy="107.685387" r="1"></circle>
            <circle id="Oval" fill="#000000" fill-rule="nonzero" opacity="0.1" cx="193.263226" cy="112.122699" r="1"></circle>
            <path d="M198.3444,73.3618334 C198.345551,73.8744789 198.280771,74.3851443 198.151651,74.8812642 C197.892685,74.7631335 197.734164,74.4967518 197.753851,74.2127967 C197.780508,73.9687855 197.942499,73.7452795 197.90764,73.5033188 C197.856377,73.1301253 197.405264,72.9783872 197.167404,72.6831132 C196.874181,72.3263238 196.937747,71.8075438 196.962353,71.3461781 C196.986959,70.8848125 196.87008,70.3209211 196.437422,70.1630316 C196.308239,70.1158697 196.166754,70.1117687 196.041672,70.0584554 C195.701287,69.9149194 195.596711,69.4925135 195.369104,69.2013405 C194.91389,68.6148935 194.009613,68.6271966 193.31859,68.9060665 C193.017812,69.0502709 192.70983,69.1789392 192.395858,69.2915631 C192.078045,69.4036656 191.72782,69.3776403 191.430066,69.2197951 C191.294732,69.1336736 191.186055,69.0147437 191.04662,68.9286222 C190.583204,68.6497523 189.976252,68.9286222 189.574351,69.2874621 C189.172451,69.6463021 188.85052,70.1281728 188.344043,70.3475778 C188.116436,70.4501035 187.835515,70.5116189 187.728889,70.7330745 C187.676111,70.8536374 187.653586,70.9852686 187.663272,71.1165206 C187.663272,71.9141705 187.757596,72.7241235 187.591504,73.5053693 C187.484878,74.0077453 187.132189,74.5777881 186.621611,74.5162727 C186.557986,74.5068585 186.495472,74.4910581 186.435014,74.4691109 C186.015861,72.2293597 186.899834,69.9452447 188.717564,68.5711876 C190.535294,67.1971306 192.973908,66.9696386 195.014426,67.9837695 C197.054944,68.9979005 198.346146,71.079099 198.348501,73.3577323 L198.3444,73.3618334 Z" id="Path" fill="#000000" fill-rule="nonzero" opacity="0.1"></path>
            <path d="M186.166397,74.1287256 C186.320186,74.1635843 186.465772,74.2435544 186.623662,74.2640595 C187.13424,74.3255749 187.486928,73.755532 187.593555,73.2531561 C187.759646,72.4719103 187.673525,71.6619573 187.667373,70.8643073 C187.655921,70.7331779 187.677786,70.6012807 187.730939,70.4808612 C187.847819,70.2594057 188.128739,70.1978903 188.346093,70.0953646 C188.842318,69.8739091 189.166299,69.4022909 189.576402,69.0352489 C189.986505,68.6682069 190.583204,68.397539 191.04662,68.6764089 C191.184005,68.7584295 191.294732,68.8814603 191.430066,68.9675819 C191.729218,69.1231128 192.07909,69.1490567 192.397909,69.0393499 C192.715739,68.9450263 193.013063,68.7789346 193.31859,68.6538533 C194.003461,68.3749834 194.909789,68.3647308 195.369104,68.9470768 C195.596711,69.2403003 195.701287,69.6606556 196.041672,69.8041916 C196.166754,69.857505 196.308239,69.8636565 196.437422,69.9108184 C196.87008,70.072809 196.980808,70.6325993 196.962353,71.0939649 C196.943898,71.5553306 196.882383,72.0741106 197.167404,72.4309 C197.405264,72.722073 197.856377,72.873811 197.90764,73.2511056 C197.940448,73.4930663 197.780508,73.7186228 197.753851,73.9605834 C197.741512,74.1422349 197.80245,74.3212598 197.923052,74.457659 C198.043654,74.5940583 198.213867,74.6764644 198.395662,74.6864654 C198.928796,74.6864654 199.258929,74.0897658 199.757204,73.899068 C199.962255,73.819098 200.210367,73.8067949 200.372358,73.6448043 C200.494237,73.4872102 200.540722,73.2840261 200.49949,73.089115 C200.399014,72.3037682 199.769507,71.620947 199.837174,70.8335496 C199.90074,70.0789605 200.599965,69.4207455 200.452328,68.6784595 C200.377125,68.4047562 200.236364,68.1534986 200.042225,67.946426 C199.822426,67.6485203 199.535903,67.40624 199.205615,67.2389987 C198.920594,67.1159678 198.590461,67.0872606 198.330046,66.9375731 C197.554952,66.5131167 197.557002,65.4058392 197.099738,64.65125 C196.699649,64.0155001 195.978102,63.6563091 195.229669,63.7203167 C194.653474,63.7777311 194.130593,64.0832577 193.56055,64.1857834 C192.779305,64.3252183 191.987806,64.0689041 191.247571,63.7756806 C190.507335,63.4824571 189.758898,63.1605264 188.965349,63.1605264 C188.1718,63.1605264 187.312634,63.5706292 187.070674,64.3211173 C186.943542,64.7312201 187.007108,65.1700301 186.908683,65.5821834 C186.73644,66.3142169 186.088478,66.8350474 185.436414,67.1979884 C184.987352,67.4481511 184.448066,67.735223 184.394753,68.245801 C184.359894,68.5697822 184.538289,68.8609552 184.651067,69.1746838 C184.842881,69.7054309 184.838517,70.2872847 184.638764,70.815095 C184.489077,71.2026422 184.238914,71.5430275 184.087176,71.9285241 C183.869334,72.4577539 183.888743,73.0549671 184.140489,73.5689353 C184.333632,73.9433583 184.67265,74.2215458 185.077574,74.337878 C185.481525,74.4342522 185.735789,74.0344019 186.166397,74.1287256 Z" id="Path" fill="#3F3D56" fill-rule="nonzero"></path>
            <g id="Group" opacity="0.1" transform="translate(183.779599, 67.880810)" fill="#000000" fill-rule="nonzero">
                <path d="M3.81395598,4.92533455 C3.70732925,5.42771047 3.35259033,5.99775335 2.84201236,5.93623793 C2.68412278,5.91573279 2.5405868,5.83576275 2.38474774,5.80090401 C1.95619032,5.70658037 1.70192659,6.1084811 1.29797534,6.00595541 C0.892514844,5.88968019 0.552834814,5.6115579 0.358839944,5.23701267 C0.251596317,5.02830164 0.186781668,4.80040497 0.168142145,4.5664946 C0.127300649,4.92956636 0.19359026,5.296654 0.358839944,5.62250929 C0.552834814,5.99705452 0.892514844,6.27517682 1.29797534,6.39145203 C1.70807813,6.48577567 1.95619032,6.08387494 2.38474774,6.18640063 C2.53478499,6.23863365 2.68740788,6.28312014 2.84201236,6.31968404 C3.35259033,6.38324998 3.70732925,5.81320709 3.81395598,5.31083117 C3.89802207,4.86699015 3.93104492,4.41498993 3.91238065,3.9636435 C3.91039848,4.28661691 3.87743931,4.60865549 3.81395598,4.92533455 Z" id="Path"></path>
                <path d="M1.00475184,1.83726051 C1.03087119,1.50125172 0.984725026,1.16354571 0.869417921,0.846862268 C0.776660164,0.636291841 0.697886292,0.419834941 0.633608815,0.198899855 C0.624804197,0.23334335 0.61795818,0.26825804 0.613103676,0.303476067 C0.578244938,0.62540676 0.758690167,0.918630257 0.869417921,1.23235889 C0.941018429,1.42713916 0.986524848,1.63053906 1.00475184,1.83726051 L1.00475184,1.83726051 Z" id="Path"></path>
                <path d="M16.6706785,0.756639653 C16.5743044,1.33898562 16.1026862,1.88647285 16.0555244,2.49957652 C16.0441556,2.60452927 16.0441556,2.71040293 16.0555244,2.81535568 C16.1580501,2.0997263 16.7916589,1.46611749 16.6706785,0.756639653 Z" id="Path"></path>
                <path d="M16.7055373,5.08322412 C16.6881483,5.16896753 16.6477438,5.24835899 16.588658,5.31288169 C16.4369199,5.47487229 16.1785552,5.48717537 15.9735038,5.56714542 C15.4752289,5.75784322 15.1532982,6.36069432 14.6119625,6.35454278 C14.328252,6.33847227 14.0837238,6.14937044 13.9968083,5.87882354 C13.9843085,5.92326308 13.9747191,5.96847025 13.9681011,6.01415746 C13.9563323,6.19546746 14.017529,6.37395905 14.1380709,6.50990564 C14.2586128,6.64585223 14.4284968,6.72797244 14.609912,6.73798889 C15.1450962,6.73798889 15.4731784,6.14128933 15.9714533,5.95264204 C16.1765047,5.872672 16.4266674,5.86036891 16.5866075,5.69837831 C16.7084866,5.54078418 16.7549715,5.33760015 16.7137393,5.14268903 C16.7116888,5.11808286 16.7075878,5.10167875 16.7055373,5.08322412 Z" id="Path"></path>
                <path d="M14.1341928,4.91303146 C14.0829299,4.53983792 13.6318168,4.38809989 13.3939572,4.09282588 C13.248122,3.89887247 13.1689918,3.66292064 13.1684007,3.42025729 C13.1519966,3.80165289 13.1581481,4.19125055 13.3939572,4.4783225 C13.6297663,4.76539446 13.9886063,4.88842529 14.1034351,5.18369931 C14.1324495,5.09660856 14.1429265,5.00441177 14.1341928,4.91303146 L14.1341928,4.91303146 Z" id="Path"></path>
                <path d="M13.1807038,2.76614334 C13.1971079,2.3047777 13.0863801,1.74088636 12.6537217,1.58299678 C12.5265898,1.53583496 12.3851044,1.52968342 12.260023,1.47842057 C11.9196377,1.33488459 11.813011,0.912478715 11.5874544,0.621305732 C11.1301898,0.0369092514 10.2259131,0.0471618212 9.53694045,0.326031721 C9.22936336,0.451113072 8.93613986,0.617204704 8.61625968,0.711528346 C8.29844649,0.823630809 7.94822099,0.797605559 7.65046761,0.639760357 C7.51513368,0.553638771 7.40440593,0.434708961 7.26702149,0.348587374 C6.80155482,0.0697174748 6.19460269,0.348587374 5.79475247,0.707427318 C5.39490224,1.06626726 5.07092104,1.54608753 4.56444409,1.76754304 C4.33478652,1.87006874 4.05591662,1.93158416 3.93698681,2.15303966 C3.88482984,2.27375416 3.86300645,2.40539848 3.87342088,2.53648578 C3.87342088,2.61645582 3.87342088,2.69642587 3.87342088,2.77639591 C3.87613813,2.69378783 3.89640897,2.61270447 3.93288579,2.53853629 C4.0518156,2.31708078 4.3306855,2.25556536 4.56034306,2.15303966 C5.05656744,1.93158416 5.38054865,1.45996594 5.79065144,1.09292394 C6.20075423,0.725881944 6.7974538,0.4552141 7.26292047,0.734084 C7.4003049,0.816104558 7.51103266,0.939135396 7.64636658,1.02320647 C7.94383226,1.18204632 8.294483,1.20810317 8.61215866,1.09497446 C8.92557074,0.983409995 9.23288991,0.855417376 9.53283943,0.711528346 C10.2197616,0.432658447 11.1240383,0.420355363 11.5833534,1.00475184 C11.8089099,1.29592483 11.9155367,1.7183307 12.255922,1.86186668 C12.3810033,1.91518004 12.5224888,1.92133159 12.6496207,1.96849341 C13.0002585,2.0997263 13.1396935,2.49342498 13.1704512,2.88302264 L13.1807038,2.76614334 Z" id="Path"></path>
            </g>
            <g id="Group" opacity="0.1" transform="translate(186.855370, 71.161632)" fill="#000000" fill-rule="nonzero">
                <path d="M0.0061515419,1.63220912 C0.0302887304,0.933093563 0.513281156,0.33394898 1.19134861,0.161990603 C2.10571456,-0.0615184066 3.06499987,-0.0181086116 3.95544144,0.287071955 C5.90137919,0.93093334 3.70937976,3.24801412 3.70937976,3.24801412 C3.70937976,3.24801412 2.25146433,4.6833739 0.891973575,3.68067257 C0.490430657,3.37718405 0.209304892,2.94133015 0.0984246704,2.45036419 C0.0318593489,2.18288351 0.000834535916,1.90779683 0.0061515419,1.63220912 L0.0061515419,1.63220912 Z" id="Path"></path>
                <path d="M10.7036829,1.63220912 C10.6792923,0.932505431 10.1953139,0.333174734 9.51643532,0.161990603 C8.60271881,-0.0611172185 7.64420358,-0.0177100699 6.754393,0.287071955 C4.80845525,0.93093334 7.00045468,3.24801412 7.00045468,3.24801412 C7.00045468,3.24801412 8.45631959,4.6833739 9.81786087,3.68067257 C10.2194038,3.37718405 10.5005296,2.94133015 10.6114098,2.45036419 C10.6779751,2.18288351 10.7089999,1.90779683 10.7036829,1.63220912 L10.7036829,1.63220912 Z" id="Path"></path>
                <polygon id="Path" points="3.58839944 0.0984246704 3.58839944 0.194798827 7.14194014 0.194798827 7.14194014 0.0799700447"></polygon>
                <path d="M4.72233366,1.12573217 L4.83511193,1.12573217 L4.83511193,0.799700447 C4.83511193,0.799700447 5.19600239,0.518780033 5.79475247,0.799700447 L5.79475247,1.09087343 L5.99980386,1.09087343 L5.99980386,0.900175631 L5.89932868,0.900175631 C5.89932868,0.900175631 5.94033896,0.504426436 5.27187141,0.567992369 C5.27187141,0.567992369 4.73463675,0.516729519 4.74693983,0.857114838 L4.62390899,0.857114838 L4.72233366,1.12573217 Z" id="Path"></path>
            </g>
            <path d="M186.861521,72.6605576 C186.885658,71.961442 187.368651,71.3622974 188.046718,71.1903391 C188.961229,70.9683232 189.92009,71.0117137 190.810811,71.3154204 C192.756749,71.9613323 190.56475,74.2763626 190.56475,74.2763626 C190.56475,74.2763626 189.106834,75.7117224 187.747343,74.709021 C187.345004,74.4062725 187.063672,73.9700989 186.953794,73.4787127 C186.887016,73.2112703 186.855988,72.9361553 186.861521,72.6605576 L186.861521,72.6605576 Z" id="Path" fill="url(#linearGradient-14)" fill-rule="nonzero"></path>
            <path d="M197.559053,72.6605576 C197.534662,71.9608539 197.050684,71.3615232 196.371805,71.1903391 C195.457988,70.9682651 194.499767,71.011659 193.609763,71.3154204 C191.663825,71.9613323 193.855824,74.2763626 193.855824,74.2763626 C193.855824,74.2763626 195.311689,75.7117224 196.673231,74.709021 C197.07557,74.4062725 197.356902,73.9700989 197.46678,73.4787127 C197.533558,73.2112703 197.564586,72.9361553 197.559053,72.6605576 Z" id="Path" fill="url(#linearGradient-15)" fill-rule="nonzero"></path>
            <polygon id="Path" fill="url(#linearGradient-16)" fill-rule="nonzero" points="190.443769 71.1308742 190.443769 71.2292988 193.99731 71.2292988 193.99731 71.1124195"></polygon>
            <path d="M191.577703,72.1581817 L191.690482,72.1581817 L191.690482,71.8321499 C191.690482,71.8321499 192.051372,71.55328 192.650122,71.8321499 L192.650122,72.1253734 L192.855174,72.1253734 L192.855174,71.9326251 L192.754698,71.9326251 C192.754698,71.9326251 192.795709,71.5389264 192.127241,71.6004419 C192.127241,71.6004419 191.590007,71.5512295 191.60231,71.8895643 L191.479279,71.8895643 L191.577703,72.1581817 Z" id="Path" fill="url(#linearGradient-17)" fill-rule="nonzero"></path>
        </g>
    </g>
</svg>